G04 #@! TF.GenerationSoftware,KiCad,Pcbnew,6.0.5+dfsg-1~bpo11+1*
G04 #@! TF.CreationDate,2022-08-22T22:11:56+00:00*
G04 #@! TF.ProjectId,LEDcube,4c454463-7562-4652-9e6b-696361645f70,rev?*
G04 #@! TF.SameCoordinates,Original*
G04 #@! TF.FileFunction,Paste,Top*
G04 #@! TF.FilePolarity,Positive*
%FSLAX46Y46*%
G04 Gerber Fmt 4.6, Leading zero omitted, Abs format (unit mm)*
G04 Created by KiCad (PCBNEW 6.0.5+dfsg-1~bpo11+1) date 2022-08-22 22:11:56*
%MOMM*%
%LPD*%
G01*
G04 APERTURE LIST*
%ADD10R,1.500000X1.000000*%
%ADD11R,1.200000X1.400000*%
%ADD12R,0.600000X0.450000*%
%ADD13R,2.000000X1.500000*%
%ADD14R,2.000000X3.800000*%
G04 APERTURE END LIST*
G36*
G01*
X100760000Y-108830000D02*
X100760000Y-109170000D01*
G75*
G02*
X100620000Y-109310000I-140000J0D01*
G01*
X100340000Y-109310000D01*
G75*
G02*
X100200000Y-109170000I0J140000D01*
G01*
X100200000Y-108830000D01*
G75*
G02*
X100340000Y-108690000I140000J0D01*
G01*
X100620000Y-108690000D01*
G75*
G02*
X100760000Y-108830000I0J-140000D01*
G01*
G37*
G36*
G01*
X99800000Y-108830000D02*
X99800000Y-109170000D01*
G75*
G02*
X99660000Y-109310000I-140000J0D01*
G01*
X99380000Y-109310000D01*
G75*
G02*
X99240000Y-109170000I0J140000D01*
G01*
X99240000Y-108830000D01*
G75*
G02*
X99380000Y-108690000I140000J0D01*
G01*
X99660000Y-108690000D01*
G75*
G02*
X99800000Y-108830000I0J-140000D01*
G01*
G37*
D10*
X112550000Y-113400000D03*
X112550000Y-116600000D03*
X117450000Y-116600000D03*
X117450000Y-113400000D03*
G36*
G01*
X91670000Y-102280000D02*
X91330000Y-102280000D01*
G75*
G02*
X91190000Y-102140000I0J140000D01*
G01*
X91190000Y-101860000D01*
G75*
G02*
X91330000Y-101720000I140000J0D01*
G01*
X91670000Y-101720000D01*
G75*
G02*
X91810000Y-101860000I0J-140000D01*
G01*
X91810000Y-102140000D01*
G75*
G02*
X91670000Y-102280000I-140000J0D01*
G01*
G37*
G36*
G01*
X91670000Y-101320000D02*
X91330000Y-101320000D01*
G75*
G02*
X91190000Y-101180000I0J140000D01*
G01*
X91190000Y-100900000D01*
G75*
G02*
X91330000Y-100760000I140000J0D01*
G01*
X91670000Y-100760000D01*
G75*
G02*
X91810000Y-100900000I0J-140000D01*
G01*
X91810000Y-101180000D01*
G75*
G02*
X91670000Y-101320000I-140000J0D01*
G01*
G37*
D11*
X93850000Y-99100000D03*
X93850000Y-96900000D03*
X92150000Y-96900000D03*
X92150000Y-99100000D03*
G36*
G01*
X93740000Y-94830000D02*
X93740000Y-95170000D01*
G75*
G02*
X93600000Y-95310000I-140000J0D01*
G01*
X93320000Y-95310000D01*
G75*
G02*
X93180000Y-95170000I0J140000D01*
G01*
X93180000Y-94830000D01*
G75*
G02*
X93320000Y-94690000I140000J0D01*
G01*
X93600000Y-94690000D01*
G75*
G02*
X93740000Y-94830000I0J-140000D01*
G01*
G37*
G36*
G01*
X92780000Y-94830000D02*
X92780000Y-95170000D01*
G75*
G02*
X92640000Y-95310000I-140000J0D01*
G01*
X92360000Y-95310000D01*
G75*
G02*
X92220000Y-95170000I0J140000D01*
G01*
X92220000Y-94830000D01*
G75*
G02*
X92360000Y-94690000I140000J0D01*
G01*
X92640000Y-94690000D01*
G75*
G02*
X92780000Y-94830000I0J-140000D01*
G01*
G37*
G36*
G01*
X96400000Y-97175000D02*
X96400000Y-96975000D01*
G75*
G02*
X96500000Y-96875000I100000J0D01*
G01*
X97775000Y-96875000D01*
G75*
G02*
X97875000Y-96975000I0J-100000D01*
G01*
X97875000Y-97175000D01*
G75*
G02*
X97775000Y-97275000I-100000J0D01*
G01*
X96500000Y-97275000D01*
G75*
G02*
X96400000Y-97175000I0J100000D01*
G01*
G37*
G36*
G01*
X96400000Y-97825000D02*
X96400000Y-97625000D01*
G75*
G02*
X96500000Y-97525000I100000J0D01*
G01*
X97775000Y-97525000D01*
G75*
G02*
X97875000Y-97625000I0J-100000D01*
G01*
X97875000Y-97825000D01*
G75*
G02*
X97775000Y-97925000I-100000J0D01*
G01*
X96500000Y-97925000D01*
G75*
G02*
X96400000Y-97825000I0J100000D01*
G01*
G37*
G36*
G01*
X96400000Y-98475000D02*
X96400000Y-98275000D01*
G75*
G02*
X96500000Y-98175000I100000J0D01*
G01*
X97775000Y-98175000D01*
G75*
G02*
X97875000Y-98275000I0J-100000D01*
G01*
X97875000Y-98475000D01*
G75*
G02*
X97775000Y-98575000I-100000J0D01*
G01*
X96500000Y-98575000D01*
G75*
G02*
X96400000Y-98475000I0J100000D01*
G01*
G37*
G36*
G01*
X96400000Y-99125000D02*
X96400000Y-98925000D01*
G75*
G02*
X96500000Y-98825000I100000J0D01*
G01*
X97775000Y-98825000D01*
G75*
G02*
X97875000Y-98925000I0J-100000D01*
G01*
X97875000Y-99125000D01*
G75*
G02*
X97775000Y-99225000I-100000J0D01*
G01*
X96500000Y-99225000D01*
G75*
G02*
X96400000Y-99125000I0J100000D01*
G01*
G37*
G36*
G01*
X96400000Y-99775000D02*
X96400000Y-99575000D01*
G75*
G02*
X96500000Y-99475000I100000J0D01*
G01*
X97775000Y-99475000D01*
G75*
G02*
X97875000Y-99575000I0J-100000D01*
G01*
X97875000Y-99775000D01*
G75*
G02*
X97775000Y-99875000I-100000J0D01*
G01*
X96500000Y-99875000D01*
G75*
G02*
X96400000Y-99775000I0J100000D01*
G01*
G37*
G36*
G01*
X96400000Y-100425000D02*
X96400000Y-100225000D01*
G75*
G02*
X96500000Y-100125000I100000J0D01*
G01*
X97775000Y-100125000D01*
G75*
G02*
X97875000Y-100225000I0J-100000D01*
G01*
X97875000Y-100425000D01*
G75*
G02*
X97775000Y-100525000I-100000J0D01*
G01*
X96500000Y-100525000D01*
G75*
G02*
X96400000Y-100425000I0J100000D01*
G01*
G37*
G36*
G01*
X96400000Y-101075000D02*
X96400000Y-100875000D01*
G75*
G02*
X96500000Y-100775000I100000J0D01*
G01*
X97775000Y-100775000D01*
G75*
G02*
X97875000Y-100875000I0J-100000D01*
G01*
X97875000Y-101075000D01*
G75*
G02*
X97775000Y-101175000I-100000J0D01*
G01*
X96500000Y-101175000D01*
G75*
G02*
X96400000Y-101075000I0J100000D01*
G01*
G37*
G36*
G01*
X96400000Y-101725000D02*
X96400000Y-101525000D01*
G75*
G02*
X96500000Y-101425000I100000J0D01*
G01*
X97775000Y-101425000D01*
G75*
G02*
X97875000Y-101525000I0J-100000D01*
G01*
X97875000Y-101725000D01*
G75*
G02*
X97775000Y-101825000I-100000J0D01*
G01*
X96500000Y-101825000D01*
G75*
G02*
X96400000Y-101725000I0J100000D01*
G01*
G37*
G36*
G01*
X96400000Y-102375000D02*
X96400000Y-102175000D01*
G75*
G02*
X96500000Y-102075000I100000J0D01*
G01*
X97775000Y-102075000D01*
G75*
G02*
X97875000Y-102175000I0J-100000D01*
G01*
X97875000Y-102375000D01*
G75*
G02*
X97775000Y-102475000I-100000J0D01*
G01*
X96500000Y-102475000D01*
G75*
G02*
X96400000Y-102375000I0J100000D01*
G01*
G37*
G36*
G01*
X96400000Y-103025000D02*
X96400000Y-102825000D01*
G75*
G02*
X96500000Y-102725000I100000J0D01*
G01*
X97775000Y-102725000D01*
G75*
G02*
X97875000Y-102825000I0J-100000D01*
G01*
X97875000Y-103025000D01*
G75*
G02*
X97775000Y-103125000I-100000J0D01*
G01*
X96500000Y-103125000D01*
G75*
G02*
X96400000Y-103025000I0J100000D01*
G01*
G37*
G36*
G01*
X102125000Y-103025000D02*
X102125000Y-102825000D01*
G75*
G02*
X102225000Y-102725000I100000J0D01*
G01*
X103500000Y-102725000D01*
G75*
G02*
X103600000Y-102825000I0J-100000D01*
G01*
X103600000Y-103025000D01*
G75*
G02*
X103500000Y-103125000I-100000J0D01*
G01*
X102225000Y-103125000D01*
G75*
G02*
X102125000Y-103025000I0J100000D01*
G01*
G37*
G36*
G01*
X102125000Y-102375000D02*
X102125000Y-102175000D01*
G75*
G02*
X102225000Y-102075000I100000J0D01*
G01*
X103500000Y-102075000D01*
G75*
G02*
X103600000Y-102175000I0J-100000D01*
G01*
X103600000Y-102375000D01*
G75*
G02*
X103500000Y-102475000I-100000J0D01*
G01*
X102225000Y-102475000D01*
G75*
G02*
X102125000Y-102375000I0J100000D01*
G01*
G37*
G36*
G01*
X102125000Y-101725000D02*
X102125000Y-101525000D01*
G75*
G02*
X102225000Y-101425000I100000J0D01*
G01*
X103500000Y-101425000D01*
G75*
G02*
X103600000Y-101525000I0J-100000D01*
G01*
X103600000Y-101725000D01*
G75*
G02*
X103500000Y-101825000I-100000J0D01*
G01*
X102225000Y-101825000D01*
G75*
G02*
X102125000Y-101725000I0J100000D01*
G01*
G37*
G36*
G01*
X102125000Y-101075000D02*
X102125000Y-100875000D01*
G75*
G02*
X102225000Y-100775000I100000J0D01*
G01*
X103500000Y-100775000D01*
G75*
G02*
X103600000Y-100875000I0J-100000D01*
G01*
X103600000Y-101075000D01*
G75*
G02*
X103500000Y-101175000I-100000J0D01*
G01*
X102225000Y-101175000D01*
G75*
G02*
X102125000Y-101075000I0J100000D01*
G01*
G37*
G36*
G01*
X102125000Y-100425000D02*
X102125000Y-100225000D01*
G75*
G02*
X102225000Y-100125000I100000J0D01*
G01*
X103500000Y-100125000D01*
G75*
G02*
X103600000Y-100225000I0J-100000D01*
G01*
X103600000Y-100425000D01*
G75*
G02*
X103500000Y-100525000I-100000J0D01*
G01*
X102225000Y-100525000D01*
G75*
G02*
X102125000Y-100425000I0J100000D01*
G01*
G37*
G36*
G01*
X102125000Y-99775000D02*
X102125000Y-99575000D01*
G75*
G02*
X102225000Y-99475000I100000J0D01*
G01*
X103500000Y-99475000D01*
G75*
G02*
X103600000Y-99575000I0J-100000D01*
G01*
X103600000Y-99775000D01*
G75*
G02*
X103500000Y-99875000I-100000J0D01*
G01*
X102225000Y-99875000D01*
G75*
G02*
X102125000Y-99775000I0J100000D01*
G01*
G37*
G36*
G01*
X102125000Y-99125000D02*
X102125000Y-98925000D01*
G75*
G02*
X102225000Y-98825000I100000J0D01*
G01*
X103500000Y-98825000D01*
G75*
G02*
X103600000Y-98925000I0J-100000D01*
G01*
X103600000Y-99125000D01*
G75*
G02*
X103500000Y-99225000I-100000J0D01*
G01*
X102225000Y-99225000D01*
G75*
G02*
X102125000Y-99125000I0J100000D01*
G01*
G37*
G36*
G01*
X102125000Y-98475000D02*
X102125000Y-98275000D01*
G75*
G02*
X102225000Y-98175000I100000J0D01*
G01*
X103500000Y-98175000D01*
G75*
G02*
X103600000Y-98275000I0J-100000D01*
G01*
X103600000Y-98475000D01*
G75*
G02*
X103500000Y-98575000I-100000J0D01*
G01*
X102225000Y-98575000D01*
G75*
G02*
X102125000Y-98475000I0J100000D01*
G01*
G37*
G36*
G01*
X102125000Y-97825000D02*
X102125000Y-97625000D01*
G75*
G02*
X102225000Y-97525000I100000J0D01*
G01*
X103500000Y-97525000D01*
G75*
G02*
X103600000Y-97625000I0J-100000D01*
G01*
X103600000Y-97825000D01*
G75*
G02*
X103500000Y-97925000I-100000J0D01*
G01*
X102225000Y-97925000D01*
G75*
G02*
X102125000Y-97825000I0J100000D01*
G01*
G37*
G36*
G01*
X102125000Y-97175000D02*
X102125000Y-96975000D01*
G75*
G02*
X102225000Y-96875000I100000J0D01*
G01*
X103500000Y-96875000D01*
G75*
G02*
X103600000Y-96975000I0J-100000D01*
G01*
X103600000Y-97175000D01*
G75*
G02*
X103500000Y-97275000I-100000J0D01*
G01*
X102225000Y-97275000D01*
G75*
G02*
X102125000Y-97175000I0J100000D01*
G01*
G37*
D12*
X91950000Y-83500000D03*
X94050000Y-83500000D03*
G36*
G01*
X87425000Y-110050000D02*
X86575000Y-110050000D01*
G75*
G02*
X86325000Y-109800000I0J250000D01*
G01*
X86325000Y-108900000D01*
G75*
G02*
X86575000Y-108650000I250000J0D01*
G01*
X87425000Y-108650000D01*
G75*
G02*
X87675000Y-108900000I0J-250000D01*
G01*
X87675000Y-109800000D01*
G75*
G02*
X87425000Y-110050000I-250000J0D01*
G01*
G37*
G36*
G01*
X87425000Y-107350000D02*
X86575000Y-107350000D01*
G75*
G02*
X86325000Y-107100000I0J250000D01*
G01*
X86325000Y-106200000D01*
G75*
G02*
X86575000Y-105950000I250000J0D01*
G01*
X87425000Y-105950000D01*
G75*
G02*
X87675000Y-106200000I0J-250000D01*
G01*
X87675000Y-107100000D01*
G75*
G02*
X87425000Y-107350000I-250000J0D01*
G01*
G37*
G36*
G01*
X95315000Y-97230000D02*
X95685000Y-97230000D01*
G75*
G02*
X95820000Y-97365000I0J-135000D01*
G01*
X95820000Y-97635000D01*
G75*
G02*
X95685000Y-97770000I-135000J0D01*
G01*
X95315000Y-97770000D01*
G75*
G02*
X95180000Y-97635000I0J135000D01*
G01*
X95180000Y-97365000D01*
G75*
G02*
X95315000Y-97230000I135000J0D01*
G01*
G37*
G36*
G01*
X95315000Y-98250000D02*
X95685000Y-98250000D01*
G75*
G02*
X95820000Y-98385000I0J-135000D01*
G01*
X95820000Y-98655000D01*
G75*
G02*
X95685000Y-98790000I-135000J0D01*
G01*
X95315000Y-98790000D01*
G75*
G02*
X95180000Y-98655000I0J135000D01*
G01*
X95180000Y-98385000D01*
G75*
G02*
X95315000Y-98250000I135000J0D01*
G01*
G37*
D13*
X89850000Y-105700000D03*
D14*
X96150000Y-108000000D03*
D13*
X89850000Y-108000000D03*
X89850000Y-110300000D03*
D10*
X82550000Y-113400000D03*
X82550000Y-116600000D03*
X87450000Y-116600000D03*
X87450000Y-113400000D03*
X112550000Y-83400000D03*
X112550000Y-86600000D03*
X117450000Y-86600000D03*
X117450000Y-83400000D03*
G36*
G01*
X95185000Y-95280000D02*
X94815000Y-95280000D01*
G75*
G02*
X94680000Y-95145000I0J135000D01*
G01*
X94680000Y-94875000D01*
G75*
G02*
X94815000Y-94740000I135000J0D01*
G01*
X95185000Y-94740000D01*
G75*
G02*
X95320000Y-94875000I0J-135000D01*
G01*
X95320000Y-95145000D01*
G75*
G02*
X95185000Y-95280000I-135000J0D01*
G01*
G37*
G36*
G01*
X95185000Y-94260000D02*
X94815000Y-94260000D01*
G75*
G02*
X94680000Y-94125000I0J135000D01*
G01*
X94680000Y-93855000D01*
G75*
G02*
X94815000Y-93720000I135000J0D01*
G01*
X95185000Y-93720000D01*
G75*
G02*
X95320000Y-93855000I0J-135000D01*
G01*
X95320000Y-94125000D01*
G75*
G02*
X95185000Y-94260000I-135000J0D01*
G01*
G37*
G36*
G01*
X84830000Y-107240000D02*
X85170000Y-107240000D01*
G75*
G02*
X85310000Y-107380000I0J-140000D01*
G01*
X85310000Y-107660000D01*
G75*
G02*
X85170000Y-107800000I-140000J0D01*
G01*
X84830000Y-107800000D01*
G75*
G02*
X84690000Y-107660000I0J140000D01*
G01*
X84690000Y-107380000D01*
G75*
G02*
X84830000Y-107240000I140000J0D01*
G01*
G37*
G36*
G01*
X84830000Y-108200000D02*
X85170000Y-108200000D01*
G75*
G02*
X85310000Y-108340000I0J-140000D01*
G01*
X85310000Y-108620000D01*
G75*
G02*
X85170000Y-108760000I-140000J0D01*
G01*
X84830000Y-108760000D01*
G75*
G02*
X84690000Y-108620000I0J140000D01*
G01*
X84690000Y-108340000D01*
G75*
G02*
X84830000Y-108200000I140000J0D01*
G01*
G37*
G36*
G01*
X97950000Y-107425000D02*
X97950000Y-106575000D01*
G75*
G02*
X98200000Y-106325000I250000J0D01*
G01*
X99100000Y-106325000D01*
G75*
G02*
X99350000Y-106575000I0J-250000D01*
G01*
X99350000Y-107425000D01*
G75*
G02*
X99100000Y-107675000I-250000J0D01*
G01*
X98200000Y-107675000D01*
G75*
G02*
X97950000Y-107425000I0J250000D01*
G01*
G37*
G36*
G01*
X100650000Y-107425000D02*
X100650000Y-106575000D01*
G75*
G02*
X100900000Y-106325000I250000J0D01*
G01*
X101800000Y-106325000D01*
G75*
G02*
X102050000Y-106575000I0J-250000D01*
G01*
X102050000Y-107425000D01*
G75*
G02*
X101800000Y-107675000I-250000J0D01*
G01*
X100900000Y-107675000D01*
G75*
G02*
X100650000Y-107425000I0J250000D01*
G01*
G37*
G36*
G01*
X89530000Y-87245000D02*
X89530000Y-86945000D01*
G75*
G02*
X89680000Y-86795000I150000J0D01*
G01*
X91330000Y-86795000D01*
G75*
G02*
X91480000Y-86945000I0J-150000D01*
G01*
X91480000Y-87245000D01*
G75*
G02*
X91330000Y-87395000I-150000J0D01*
G01*
X89680000Y-87395000D01*
G75*
G02*
X89530000Y-87245000I0J150000D01*
G01*
G37*
G36*
G01*
X89530000Y-88515000D02*
X89530000Y-88215000D01*
G75*
G02*
X89680000Y-88065000I150000J0D01*
G01*
X91330000Y-88065000D01*
G75*
G02*
X91480000Y-88215000I0J-150000D01*
G01*
X91480000Y-88515000D01*
G75*
G02*
X91330000Y-88665000I-150000J0D01*
G01*
X89680000Y-88665000D01*
G75*
G02*
X89530000Y-88515000I0J150000D01*
G01*
G37*
G36*
G01*
X89530000Y-89785000D02*
X89530000Y-89485000D01*
G75*
G02*
X89680000Y-89335000I150000J0D01*
G01*
X91330000Y-89335000D01*
G75*
G02*
X91480000Y-89485000I0J-150000D01*
G01*
X91480000Y-89785000D01*
G75*
G02*
X91330000Y-89935000I-150000J0D01*
G01*
X89680000Y-89935000D01*
G75*
G02*
X89530000Y-89785000I0J150000D01*
G01*
G37*
G36*
G01*
X89530000Y-91055000D02*
X89530000Y-90755000D01*
G75*
G02*
X89680000Y-90605000I150000J0D01*
G01*
X91330000Y-90605000D01*
G75*
G02*
X91480000Y-90755000I0J-150000D01*
G01*
X91480000Y-91055000D01*
G75*
G02*
X91330000Y-91205000I-150000J0D01*
G01*
X89680000Y-91205000D01*
G75*
G02*
X89530000Y-91055000I0J150000D01*
G01*
G37*
G36*
G01*
X94480000Y-91055000D02*
X94480000Y-90755000D01*
G75*
G02*
X94630000Y-90605000I150000J0D01*
G01*
X96280000Y-90605000D01*
G75*
G02*
X96430000Y-90755000I0J-150000D01*
G01*
X96430000Y-91055000D01*
G75*
G02*
X96280000Y-91205000I-150000J0D01*
G01*
X94630000Y-91205000D01*
G75*
G02*
X94480000Y-91055000I0J150000D01*
G01*
G37*
G36*
G01*
X94480000Y-89785000D02*
X94480000Y-89485000D01*
G75*
G02*
X94630000Y-89335000I150000J0D01*
G01*
X96280000Y-89335000D01*
G75*
G02*
X96430000Y-89485000I0J-150000D01*
G01*
X96430000Y-89785000D01*
G75*
G02*
X96280000Y-89935000I-150000J0D01*
G01*
X94630000Y-89935000D01*
G75*
G02*
X94480000Y-89785000I0J150000D01*
G01*
G37*
G36*
G01*
X94480000Y-88515000D02*
X94480000Y-88215000D01*
G75*
G02*
X94630000Y-88065000I150000J0D01*
G01*
X96280000Y-88065000D01*
G75*
G02*
X96430000Y-88215000I0J-150000D01*
G01*
X96430000Y-88515000D01*
G75*
G02*
X96280000Y-88665000I-150000J0D01*
G01*
X94630000Y-88665000D01*
G75*
G02*
X94480000Y-88515000I0J150000D01*
G01*
G37*
G36*
G01*
X94480000Y-87245000D02*
X94480000Y-86945000D01*
G75*
G02*
X94630000Y-86795000I150000J0D01*
G01*
X96280000Y-86795000D01*
G75*
G02*
X96430000Y-86945000I0J-150000D01*
G01*
X96430000Y-87245000D01*
G75*
G02*
X96280000Y-87395000I-150000J0D01*
G01*
X94630000Y-87395000D01*
G75*
G02*
X94480000Y-87245000I0J150000D01*
G01*
G37*
G36*
G01*
X99770000Y-104315000D02*
X99770000Y-104685000D01*
G75*
G02*
X99635000Y-104820000I-135000J0D01*
G01*
X99365000Y-104820000D01*
G75*
G02*
X99230000Y-104685000I0J135000D01*
G01*
X99230000Y-104315000D01*
G75*
G02*
X99365000Y-104180000I135000J0D01*
G01*
X99635000Y-104180000D01*
G75*
G02*
X99770000Y-104315000I0J-135000D01*
G01*
G37*
G36*
G01*
X98750000Y-104315000D02*
X98750000Y-104685000D01*
G75*
G02*
X98615000Y-104820000I-135000J0D01*
G01*
X98345000Y-104820000D01*
G75*
G02*
X98210000Y-104685000I0J135000D01*
G01*
X98210000Y-104315000D01*
G75*
G02*
X98345000Y-104180000I135000J0D01*
G01*
X98615000Y-104180000D01*
G75*
G02*
X98750000Y-104315000I0J-135000D01*
G01*
G37*
X82550000Y-83400000D03*
X82550000Y-86600000D03*
X87450000Y-86600000D03*
X87450000Y-83400000D03*
M02*
