G04 #@! TF.GenerationSoftware,KiCad,Pcbnew,6.0.4+dfsg-1~bpo11+1*
G04 #@! TF.CreationDate,2022-05-23T04:18:15+00:00*
G04 #@! TF.ProjectId,LEDcube,4c454463-7562-4652-9e6b-696361645f70,rev?*
G04 #@! TF.SameCoordinates,Original*
G04 #@! TF.FileFunction,Soldermask,Top*
G04 #@! TF.FilePolarity,Negative*
%FSLAX46Y46*%
G04 Gerber Fmt 4.6, Leading zero omitted, Abs format (unit mm)*
G04 Created by KiCad (PCBNEW 6.0.4+dfsg-1~bpo11+1) date 2022-05-23 04:18:15*
%MOMM*%
%LPD*%
G01*
G04 APERTURE LIST*
%ADD10R,1.500000X1.000000*%
%ADD11C,5.500000*%
%ADD12R,1.200000X1.400000*%
%ADD13R,0.600000X0.450000*%
%ADD14R,2.000000X1.500000*%
%ADD15R,2.000000X3.800000*%
%ADD16C,0.990600*%
%ADD17C,2.374900*%
%ADD18C,0.787400*%
%ADD19R,1.700000X1.700000*%
%ADD20O,1.700000X1.700000*%
G04 APERTURE END LIST*
G36*
G01*
X100760000Y-108830000D02*
X100760000Y-109170000D01*
G75*
G02*
X100620000Y-109310000I-140000J0D01*
G01*
X100340000Y-109310000D01*
G75*
G02*
X100200000Y-109170000I0J140000D01*
G01*
X100200000Y-108830000D01*
G75*
G02*
X100340000Y-108690000I140000J0D01*
G01*
X100620000Y-108690000D01*
G75*
G02*
X100760000Y-108830000I0J-140000D01*
G01*
G37*
G36*
G01*
X99800000Y-108830000D02*
X99800000Y-109170000D01*
G75*
G02*
X99660000Y-109310000I-140000J0D01*
G01*
X99380000Y-109310000D01*
G75*
G02*
X99240000Y-109170000I0J140000D01*
G01*
X99240000Y-108830000D01*
G75*
G02*
X99380000Y-108690000I140000J0D01*
G01*
X99660000Y-108690000D01*
G75*
G02*
X99800000Y-108830000I0J-140000D01*
G01*
G37*
D10*
X112550000Y-113400000D03*
X112550000Y-116600000D03*
X117450000Y-116600000D03*
X117450000Y-113400000D03*
G36*
G01*
X91670000Y-102280000D02*
X91330000Y-102280000D01*
G75*
G02*
X91190000Y-102140000I0J140000D01*
G01*
X91190000Y-101860000D01*
G75*
G02*
X91330000Y-101720000I140000J0D01*
G01*
X91670000Y-101720000D01*
G75*
G02*
X91810000Y-101860000I0J-140000D01*
G01*
X91810000Y-102140000D01*
G75*
G02*
X91670000Y-102280000I-140000J0D01*
G01*
G37*
G36*
G01*
X91670000Y-101320000D02*
X91330000Y-101320000D01*
G75*
G02*
X91190000Y-101180000I0J140000D01*
G01*
X91190000Y-100900000D01*
G75*
G02*
X91330000Y-100760000I140000J0D01*
G01*
X91670000Y-100760000D01*
G75*
G02*
X91810000Y-100900000I0J-140000D01*
G01*
X91810000Y-101180000D01*
G75*
G02*
X91670000Y-101320000I-140000J0D01*
G01*
G37*
D11*
X100000000Y-115000000D03*
D12*
X92150000Y-96900000D03*
X92150000Y-99100000D03*
X93850000Y-99100000D03*
X93850000Y-96900000D03*
G36*
G01*
X92220000Y-95170000D02*
X92220000Y-94830000D01*
G75*
G02*
X92360000Y-94690000I140000J0D01*
G01*
X92640000Y-94690000D01*
G75*
G02*
X92780000Y-94830000I0J-140000D01*
G01*
X92780000Y-95170000D01*
G75*
G02*
X92640000Y-95310000I-140000J0D01*
G01*
X92360000Y-95310000D01*
G75*
G02*
X92220000Y-95170000I0J140000D01*
G01*
G37*
G36*
G01*
X93180000Y-95170000D02*
X93180000Y-94830000D01*
G75*
G02*
X93320000Y-94690000I140000J0D01*
G01*
X93600000Y-94690000D01*
G75*
G02*
X93740000Y-94830000I0J-140000D01*
G01*
X93740000Y-95170000D01*
G75*
G02*
X93600000Y-95310000I-140000J0D01*
G01*
X93320000Y-95310000D01*
G75*
G02*
X93180000Y-95170000I0J140000D01*
G01*
G37*
G36*
G01*
X96400000Y-97175000D02*
X96400000Y-96975000D01*
G75*
G02*
X96500000Y-96875000I100000J0D01*
G01*
X97775000Y-96875000D01*
G75*
G02*
X97875000Y-96975000I0J-100000D01*
G01*
X97875000Y-97175000D01*
G75*
G02*
X97775000Y-97275000I-100000J0D01*
G01*
X96500000Y-97275000D01*
G75*
G02*
X96400000Y-97175000I0J100000D01*
G01*
G37*
G36*
G01*
X96400000Y-97825000D02*
X96400000Y-97625000D01*
G75*
G02*
X96500000Y-97525000I100000J0D01*
G01*
X97775000Y-97525000D01*
G75*
G02*
X97875000Y-97625000I0J-100000D01*
G01*
X97875000Y-97825000D01*
G75*
G02*
X97775000Y-97925000I-100000J0D01*
G01*
X96500000Y-97925000D01*
G75*
G02*
X96400000Y-97825000I0J100000D01*
G01*
G37*
G36*
G01*
X96400000Y-98475000D02*
X96400000Y-98275000D01*
G75*
G02*
X96500000Y-98175000I100000J0D01*
G01*
X97775000Y-98175000D01*
G75*
G02*
X97875000Y-98275000I0J-100000D01*
G01*
X97875000Y-98475000D01*
G75*
G02*
X97775000Y-98575000I-100000J0D01*
G01*
X96500000Y-98575000D01*
G75*
G02*
X96400000Y-98475000I0J100000D01*
G01*
G37*
G36*
G01*
X96400000Y-99125000D02*
X96400000Y-98925000D01*
G75*
G02*
X96500000Y-98825000I100000J0D01*
G01*
X97775000Y-98825000D01*
G75*
G02*
X97875000Y-98925000I0J-100000D01*
G01*
X97875000Y-99125000D01*
G75*
G02*
X97775000Y-99225000I-100000J0D01*
G01*
X96500000Y-99225000D01*
G75*
G02*
X96400000Y-99125000I0J100000D01*
G01*
G37*
G36*
G01*
X96400000Y-99775000D02*
X96400000Y-99575000D01*
G75*
G02*
X96500000Y-99475000I100000J0D01*
G01*
X97775000Y-99475000D01*
G75*
G02*
X97875000Y-99575000I0J-100000D01*
G01*
X97875000Y-99775000D01*
G75*
G02*
X97775000Y-99875000I-100000J0D01*
G01*
X96500000Y-99875000D01*
G75*
G02*
X96400000Y-99775000I0J100000D01*
G01*
G37*
G36*
G01*
X96400000Y-100425000D02*
X96400000Y-100225000D01*
G75*
G02*
X96500000Y-100125000I100000J0D01*
G01*
X97775000Y-100125000D01*
G75*
G02*
X97875000Y-100225000I0J-100000D01*
G01*
X97875000Y-100425000D01*
G75*
G02*
X97775000Y-100525000I-100000J0D01*
G01*
X96500000Y-100525000D01*
G75*
G02*
X96400000Y-100425000I0J100000D01*
G01*
G37*
G36*
G01*
X96400000Y-101075000D02*
X96400000Y-100875000D01*
G75*
G02*
X96500000Y-100775000I100000J0D01*
G01*
X97775000Y-100775000D01*
G75*
G02*
X97875000Y-100875000I0J-100000D01*
G01*
X97875000Y-101075000D01*
G75*
G02*
X97775000Y-101175000I-100000J0D01*
G01*
X96500000Y-101175000D01*
G75*
G02*
X96400000Y-101075000I0J100000D01*
G01*
G37*
G36*
G01*
X96400000Y-101725000D02*
X96400000Y-101525000D01*
G75*
G02*
X96500000Y-101425000I100000J0D01*
G01*
X97775000Y-101425000D01*
G75*
G02*
X97875000Y-101525000I0J-100000D01*
G01*
X97875000Y-101725000D01*
G75*
G02*
X97775000Y-101825000I-100000J0D01*
G01*
X96500000Y-101825000D01*
G75*
G02*
X96400000Y-101725000I0J100000D01*
G01*
G37*
G36*
G01*
X96400000Y-102375000D02*
X96400000Y-102175000D01*
G75*
G02*
X96500000Y-102075000I100000J0D01*
G01*
X97775000Y-102075000D01*
G75*
G02*
X97875000Y-102175000I0J-100000D01*
G01*
X97875000Y-102375000D01*
G75*
G02*
X97775000Y-102475000I-100000J0D01*
G01*
X96500000Y-102475000D01*
G75*
G02*
X96400000Y-102375000I0J100000D01*
G01*
G37*
G36*
G01*
X96400000Y-103025000D02*
X96400000Y-102825000D01*
G75*
G02*
X96500000Y-102725000I100000J0D01*
G01*
X97775000Y-102725000D01*
G75*
G02*
X97875000Y-102825000I0J-100000D01*
G01*
X97875000Y-103025000D01*
G75*
G02*
X97775000Y-103125000I-100000J0D01*
G01*
X96500000Y-103125000D01*
G75*
G02*
X96400000Y-103025000I0J100000D01*
G01*
G37*
G36*
G01*
X102125000Y-103025000D02*
X102125000Y-102825000D01*
G75*
G02*
X102225000Y-102725000I100000J0D01*
G01*
X103500000Y-102725000D01*
G75*
G02*
X103600000Y-102825000I0J-100000D01*
G01*
X103600000Y-103025000D01*
G75*
G02*
X103500000Y-103125000I-100000J0D01*
G01*
X102225000Y-103125000D01*
G75*
G02*
X102125000Y-103025000I0J100000D01*
G01*
G37*
G36*
G01*
X102125000Y-102375000D02*
X102125000Y-102175000D01*
G75*
G02*
X102225000Y-102075000I100000J0D01*
G01*
X103500000Y-102075000D01*
G75*
G02*
X103600000Y-102175000I0J-100000D01*
G01*
X103600000Y-102375000D01*
G75*
G02*
X103500000Y-102475000I-100000J0D01*
G01*
X102225000Y-102475000D01*
G75*
G02*
X102125000Y-102375000I0J100000D01*
G01*
G37*
G36*
G01*
X102125000Y-101725000D02*
X102125000Y-101525000D01*
G75*
G02*
X102225000Y-101425000I100000J0D01*
G01*
X103500000Y-101425000D01*
G75*
G02*
X103600000Y-101525000I0J-100000D01*
G01*
X103600000Y-101725000D01*
G75*
G02*
X103500000Y-101825000I-100000J0D01*
G01*
X102225000Y-101825000D01*
G75*
G02*
X102125000Y-101725000I0J100000D01*
G01*
G37*
G36*
G01*
X102125000Y-101075000D02*
X102125000Y-100875000D01*
G75*
G02*
X102225000Y-100775000I100000J0D01*
G01*
X103500000Y-100775000D01*
G75*
G02*
X103600000Y-100875000I0J-100000D01*
G01*
X103600000Y-101075000D01*
G75*
G02*
X103500000Y-101175000I-100000J0D01*
G01*
X102225000Y-101175000D01*
G75*
G02*
X102125000Y-101075000I0J100000D01*
G01*
G37*
G36*
G01*
X102125000Y-100425000D02*
X102125000Y-100225000D01*
G75*
G02*
X102225000Y-100125000I100000J0D01*
G01*
X103500000Y-100125000D01*
G75*
G02*
X103600000Y-100225000I0J-100000D01*
G01*
X103600000Y-100425000D01*
G75*
G02*
X103500000Y-100525000I-100000J0D01*
G01*
X102225000Y-100525000D01*
G75*
G02*
X102125000Y-100425000I0J100000D01*
G01*
G37*
G36*
G01*
X102125000Y-99775000D02*
X102125000Y-99575000D01*
G75*
G02*
X102225000Y-99475000I100000J0D01*
G01*
X103500000Y-99475000D01*
G75*
G02*
X103600000Y-99575000I0J-100000D01*
G01*
X103600000Y-99775000D01*
G75*
G02*
X103500000Y-99875000I-100000J0D01*
G01*
X102225000Y-99875000D01*
G75*
G02*
X102125000Y-99775000I0J100000D01*
G01*
G37*
G36*
G01*
X102125000Y-99125000D02*
X102125000Y-98925000D01*
G75*
G02*
X102225000Y-98825000I100000J0D01*
G01*
X103500000Y-98825000D01*
G75*
G02*
X103600000Y-98925000I0J-100000D01*
G01*
X103600000Y-99125000D01*
G75*
G02*
X103500000Y-99225000I-100000J0D01*
G01*
X102225000Y-99225000D01*
G75*
G02*
X102125000Y-99125000I0J100000D01*
G01*
G37*
G36*
G01*
X102125000Y-98475000D02*
X102125000Y-98275000D01*
G75*
G02*
X102225000Y-98175000I100000J0D01*
G01*
X103500000Y-98175000D01*
G75*
G02*
X103600000Y-98275000I0J-100000D01*
G01*
X103600000Y-98475000D01*
G75*
G02*
X103500000Y-98575000I-100000J0D01*
G01*
X102225000Y-98575000D01*
G75*
G02*
X102125000Y-98475000I0J100000D01*
G01*
G37*
G36*
G01*
X102125000Y-97825000D02*
X102125000Y-97625000D01*
G75*
G02*
X102225000Y-97525000I100000J0D01*
G01*
X103500000Y-97525000D01*
G75*
G02*
X103600000Y-97625000I0J-100000D01*
G01*
X103600000Y-97825000D01*
G75*
G02*
X103500000Y-97925000I-100000J0D01*
G01*
X102225000Y-97925000D01*
G75*
G02*
X102125000Y-97825000I0J100000D01*
G01*
G37*
G36*
G01*
X102125000Y-97175000D02*
X102125000Y-96975000D01*
G75*
G02*
X102225000Y-96875000I100000J0D01*
G01*
X103500000Y-96875000D01*
G75*
G02*
X103600000Y-96975000I0J-100000D01*
G01*
X103600000Y-97175000D01*
G75*
G02*
X103500000Y-97275000I-100000J0D01*
G01*
X102225000Y-97275000D01*
G75*
G02*
X102125000Y-97175000I0J100000D01*
G01*
G37*
D13*
X91950000Y-83500000D03*
X94050000Y-83500000D03*
G36*
G01*
X87425000Y-110050000D02*
X86575000Y-110050000D01*
G75*
G02*
X86325000Y-109800000I0J250000D01*
G01*
X86325000Y-108900000D01*
G75*
G02*
X86575000Y-108650000I250000J0D01*
G01*
X87425000Y-108650000D01*
G75*
G02*
X87675000Y-108900000I0J-250000D01*
G01*
X87675000Y-109800000D01*
G75*
G02*
X87425000Y-110050000I-250000J0D01*
G01*
G37*
G36*
G01*
X87425000Y-107350000D02*
X86575000Y-107350000D01*
G75*
G02*
X86325000Y-107100000I0J250000D01*
G01*
X86325000Y-106200000D01*
G75*
G02*
X86575000Y-105950000I250000J0D01*
G01*
X87425000Y-105950000D01*
G75*
G02*
X87675000Y-106200000I0J-250000D01*
G01*
X87675000Y-107100000D01*
G75*
G02*
X87425000Y-107350000I-250000J0D01*
G01*
G37*
D14*
X89850000Y-105700000D03*
D15*
X96150000Y-108000000D03*
D14*
X89850000Y-108000000D03*
X89850000Y-110300000D03*
D10*
X82550000Y-113400000D03*
X82550000Y-116600000D03*
X87450000Y-116600000D03*
X87450000Y-113400000D03*
X112550000Y-83400000D03*
X112550000Y-86600000D03*
X117450000Y-86600000D03*
X117450000Y-83400000D03*
G36*
X96250000Y-94350000D02*
G01*
X96250000Y-93850000D01*
X96254967Y-93850000D01*
X96256432Y-93770059D01*
X96298707Y-93634744D01*
X96377262Y-93516734D01*
X96485781Y-93425514D01*
X96615540Y-93368419D01*
X96750000Y-93350836D01*
X96750000Y-93350000D01*
X97250000Y-93350000D01*
X97250000Y-93350836D01*
X97256109Y-93350037D01*
X97396186Y-93371848D01*
X97524511Y-93432096D01*
X97630769Y-93525940D01*
X97706417Y-93645835D01*
X97745374Y-93782142D01*
X97744959Y-93850000D01*
X97750000Y-93850000D01*
X97750000Y-94350000D01*
X96250000Y-94350000D01*
G37*
G36*
X97744959Y-95150000D02*
G01*
X97744508Y-95223905D01*
X97703889Y-95359726D01*
X97626782Y-95478688D01*
X97519385Y-95571226D01*
X97390333Y-95629903D01*
X97250000Y-95650000D01*
X96750000Y-95650000D01*
X96737784Y-95649851D01*
X96597983Y-95626331D01*
X96470404Y-95564519D01*
X96365300Y-95469384D01*
X96291123Y-95348574D01*
X96253834Y-95211801D01*
X96254967Y-95150000D01*
X96250000Y-95150000D01*
X96250000Y-94650000D01*
X97750000Y-94650000D01*
X97750000Y-95150000D01*
X97744959Y-95150000D01*
G37*
G36*
X94150000Y-101250000D02*
G01*
X94650000Y-101250000D01*
X94650000Y-101254967D01*
X94729941Y-101256432D01*
X94865256Y-101298707D01*
X94983266Y-101377262D01*
X95074486Y-101485781D01*
X95131581Y-101615540D01*
X95149164Y-101750000D01*
X95150000Y-101750000D01*
X95150000Y-102250000D01*
X95149164Y-102250000D01*
X95149963Y-102256109D01*
X95128152Y-102396186D01*
X95067904Y-102524511D01*
X94974060Y-102630769D01*
X94854165Y-102706417D01*
X94717858Y-102745374D01*
X94650000Y-102744959D01*
X94650000Y-102750000D01*
X94150000Y-102750000D01*
X94150000Y-101250000D01*
G37*
G36*
X93350000Y-102744959D02*
G01*
X93276095Y-102744508D01*
X93140274Y-102703889D01*
X93021312Y-102626782D01*
X92928774Y-102519385D01*
X92870097Y-102390333D01*
X92850000Y-102250000D01*
X92850000Y-101750000D01*
X92850149Y-101737784D01*
X92873669Y-101597983D01*
X92935481Y-101470404D01*
X93030616Y-101365300D01*
X93151426Y-101291123D01*
X93288199Y-101253834D01*
X93350000Y-101254967D01*
X93350000Y-101250000D01*
X93850000Y-101250000D01*
X93850000Y-102750000D01*
X93350000Y-102750000D01*
X93350000Y-102744959D01*
G37*
G36*
G01*
X95185000Y-95280000D02*
X94815000Y-95280000D01*
G75*
G02*
X94680000Y-95145000I0J135000D01*
G01*
X94680000Y-94875000D01*
G75*
G02*
X94815000Y-94740000I135000J0D01*
G01*
X95185000Y-94740000D01*
G75*
G02*
X95320000Y-94875000I0J-135000D01*
G01*
X95320000Y-95145000D01*
G75*
G02*
X95185000Y-95280000I-135000J0D01*
G01*
G37*
G36*
G01*
X95185000Y-94260000D02*
X94815000Y-94260000D01*
G75*
G02*
X94680000Y-94125000I0J135000D01*
G01*
X94680000Y-93855000D01*
G75*
G02*
X94815000Y-93720000I135000J0D01*
G01*
X95185000Y-93720000D01*
G75*
G02*
X95320000Y-93855000I0J-135000D01*
G01*
X95320000Y-94125000D01*
G75*
G02*
X95185000Y-94260000I-135000J0D01*
G01*
G37*
G36*
G01*
X84830000Y-107240000D02*
X85170000Y-107240000D01*
G75*
G02*
X85310000Y-107380000I0J-140000D01*
G01*
X85310000Y-107660000D01*
G75*
G02*
X85170000Y-107800000I-140000J0D01*
G01*
X84830000Y-107800000D01*
G75*
G02*
X84690000Y-107660000I0J140000D01*
G01*
X84690000Y-107380000D01*
G75*
G02*
X84830000Y-107240000I140000J0D01*
G01*
G37*
G36*
G01*
X84830000Y-108200000D02*
X85170000Y-108200000D01*
G75*
G02*
X85310000Y-108340000I0J-140000D01*
G01*
X85310000Y-108620000D01*
G75*
G02*
X85170000Y-108760000I-140000J0D01*
G01*
X84830000Y-108760000D01*
G75*
G02*
X84690000Y-108620000I0J140000D01*
G01*
X84690000Y-108340000D01*
G75*
G02*
X84830000Y-108200000I140000J0D01*
G01*
G37*
D11*
X85000000Y-100000000D03*
X115000000Y-100000000D03*
G36*
G01*
X97950000Y-107425000D02*
X97950000Y-106575000D01*
G75*
G02*
X98200000Y-106325000I250000J0D01*
G01*
X99100000Y-106325000D01*
G75*
G02*
X99350000Y-106575000I0J-250000D01*
G01*
X99350000Y-107425000D01*
G75*
G02*
X99100000Y-107675000I-250000J0D01*
G01*
X98200000Y-107675000D01*
G75*
G02*
X97950000Y-107425000I0J250000D01*
G01*
G37*
G36*
G01*
X100650000Y-107425000D02*
X100650000Y-106575000D01*
G75*
G02*
X100900000Y-106325000I250000J0D01*
G01*
X101800000Y-106325000D01*
G75*
G02*
X102050000Y-106575000I0J-250000D01*
G01*
X102050000Y-107425000D01*
G75*
G02*
X101800000Y-107675000I-250000J0D01*
G01*
X100900000Y-107675000D01*
G75*
G02*
X100650000Y-107425000I0J250000D01*
G01*
G37*
G36*
G01*
X89530000Y-87245000D02*
X89530000Y-86945000D01*
G75*
G02*
X89680000Y-86795000I150000J0D01*
G01*
X91330000Y-86795000D01*
G75*
G02*
X91480000Y-86945000I0J-150000D01*
G01*
X91480000Y-87245000D01*
G75*
G02*
X91330000Y-87395000I-150000J0D01*
G01*
X89680000Y-87395000D01*
G75*
G02*
X89530000Y-87245000I0J150000D01*
G01*
G37*
G36*
G01*
X89530000Y-88515000D02*
X89530000Y-88215000D01*
G75*
G02*
X89680000Y-88065000I150000J0D01*
G01*
X91330000Y-88065000D01*
G75*
G02*
X91480000Y-88215000I0J-150000D01*
G01*
X91480000Y-88515000D01*
G75*
G02*
X91330000Y-88665000I-150000J0D01*
G01*
X89680000Y-88665000D01*
G75*
G02*
X89530000Y-88515000I0J150000D01*
G01*
G37*
G36*
G01*
X89530000Y-89785000D02*
X89530000Y-89485000D01*
G75*
G02*
X89680000Y-89335000I150000J0D01*
G01*
X91330000Y-89335000D01*
G75*
G02*
X91480000Y-89485000I0J-150000D01*
G01*
X91480000Y-89785000D01*
G75*
G02*
X91330000Y-89935000I-150000J0D01*
G01*
X89680000Y-89935000D01*
G75*
G02*
X89530000Y-89785000I0J150000D01*
G01*
G37*
G36*
G01*
X89530000Y-91055000D02*
X89530000Y-90755000D01*
G75*
G02*
X89680000Y-90605000I150000J0D01*
G01*
X91330000Y-90605000D01*
G75*
G02*
X91480000Y-90755000I0J-150000D01*
G01*
X91480000Y-91055000D01*
G75*
G02*
X91330000Y-91205000I-150000J0D01*
G01*
X89680000Y-91205000D01*
G75*
G02*
X89530000Y-91055000I0J150000D01*
G01*
G37*
G36*
G01*
X94480000Y-91055000D02*
X94480000Y-90755000D01*
G75*
G02*
X94630000Y-90605000I150000J0D01*
G01*
X96280000Y-90605000D01*
G75*
G02*
X96430000Y-90755000I0J-150000D01*
G01*
X96430000Y-91055000D01*
G75*
G02*
X96280000Y-91205000I-150000J0D01*
G01*
X94630000Y-91205000D01*
G75*
G02*
X94480000Y-91055000I0J150000D01*
G01*
G37*
G36*
G01*
X94480000Y-89785000D02*
X94480000Y-89485000D01*
G75*
G02*
X94630000Y-89335000I150000J0D01*
G01*
X96280000Y-89335000D01*
G75*
G02*
X96430000Y-89485000I0J-150000D01*
G01*
X96430000Y-89785000D01*
G75*
G02*
X96280000Y-89935000I-150000J0D01*
G01*
X94630000Y-89935000D01*
G75*
G02*
X94480000Y-89785000I0J150000D01*
G01*
G37*
G36*
G01*
X94480000Y-88515000D02*
X94480000Y-88215000D01*
G75*
G02*
X94630000Y-88065000I150000J0D01*
G01*
X96280000Y-88065000D01*
G75*
G02*
X96430000Y-88215000I0J-150000D01*
G01*
X96430000Y-88515000D01*
G75*
G02*
X96280000Y-88665000I-150000J0D01*
G01*
X94630000Y-88665000D01*
G75*
G02*
X94480000Y-88515000I0J150000D01*
G01*
G37*
G36*
G01*
X94480000Y-87245000D02*
X94480000Y-86945000D01*
G75*
G02*
X94630000Y-86795000I150000J0D01*
G01*
X96280000Y-86795000D01*
G75*
G02*
X96430000Y-86945000I0J-150000D01*
G01*
X96430000Y-87245000D01*
G75*
G02*
X96280000Y-87395000I-150000J0D01*
G01*
X94630000Y-87395000D01*
G75*
G02*
X94480000Y-87245000I0J150000D01*
G01*
G37*
X100000000Y-85000000D03*
G36*
G01*
X99770000Y-104315000D02*
X99770000Y-104685000D01*
G75*
G02*
X99635000Y-104820000I-135000J0D01*
G01*
X99365000Y-104820000D01*
G75*
G02*
X99230000Y-104685000I0J135000D01*
G01*
X99230000Y-104315000D01*
G75*
G02*
X99365000Y-104180000I135000J0D01*
G01*
X99635000Y-104180000D01*
G75*
G02*
X99770000Y-104315000I0J-135000D01*
G01*
G37*
G36*
G01*
X98750000Y-104315000D02*
X98750000Y-104685000D01*
G75*
G02*
X98615000Y-104820000I-135000J0D01*
G01*
X98345000Y-104820000D01*
G75*
G02*
X98210000Y-104685000I0J135000D01*
G01*
X98210000Y-104315000D01*
G75*
G02*
X98345000Y-104180000I135000J0D01*
G01*
X98615000Y-104180000D01*
G75*
G02*
X98750000Y-104315000I0J-135000D01*
G01*
G37*
D10*
X82550000Y-83400000D03*
X82550000Y-86600000D03*
X87450000Y-86600000D03*
X87450000Y-83400000D03*
D16*
X114084000Y-89760000D03*
D17*
X112560000Y-94840000D03*
D16*
X116116000Y-89760000D03*
D17*
X117640000Y-94840000D03*
D16*
X115100000Y-94840000D03*
D17*
X112560000Y-91665000D03*
X117640000Y-91665000D03*
D18*
X115735000Y-93570000D03*
X114465000Y-93570000D03*
X115735000Y-92300000D03*
X114465000Y-92300000D03*
X115735000Y-91030000D03*
X114465000Y-91030000D03*
D19*
X105000000Y-83200000D03*
D20*
X105000000Y-85740000D03*
X105000000Y-88280000D03*
X105000000Y-90820000D03*
D19*
X109000000Y-83200000D03*
D20*
X109000000Y-85740000D03*
X109000000Y-88280000D03*
X109000000Y-90820000D03*
M02*
