M48
INCH,TZ
T1C0.0157
T2C0.0394
T3C0.1260
%
G90
G05
T1
X32362Y-46575
X33465Y-32638
X35039Y-34567
X35394Y-32165
X35591Y-36142
X36207Y-35574
X37480Y-38780
X37677Y-39764
X37771Y-40261
X38268Y-41142
X38819Y-39961
X38819Y-40512
X43701Y-38189
X44331Y-45276
X46220Y-33268
X46890Y-38150
T2
X41339Y-32756
X41339Y-33756
X41339Y-34756
X41339Y-35756
X42913Y-32756
X42913Y-33756
X42913Y-34756
X42913Y-35756
T3
X33465Y-39370
X39370Y-33465
X39370Y-45276
X45276Y-39370
T0
M30
