G04 #@! TF.GenerationSoftware,KiCad,Pcbnew,6.0.4+dfsg-1~bpo11+1*
G04 #@! TF.CreationDate,2022-05-23T04:18:15+00:00*
G04 #@! TF.ProjectId,LEDcube,4c454463-7562-4652-9e6b-696361645f70,rev?*
G04 #@! TF.SameCoordinates,Original*
G04 #@! TF.FileFunction,Legend,Top*
G04 #@! TF.FilePolarity,Positive*
%FSLAX46Y46*%
G04 Gerber Fmt 4.6, Leading zero omitted, Abs format (unit mm)*
G04 Created by KiCad (PCBNEW 6.0.4+dfsg-1~bpo11+1) date 2022-05-23 04:18:15*
%MOMM*%
%LPD*%
G01*
G04 APERTURE LIST*
%ADD10C,0.150000*%
%ADD11C,0.120000*%
%ADD12C,0.010000*%
G04 APERTURE END LIST*
D10*
X98880952Y-110517142D02*
X98833333Y-110564761D01*
X98690476Y-110612380D01*
X98595238Y-110612380D01*
X98452380Y-110564761D01*
X98357142Y-110469523D01*
X98309523Y-110374285D01*
X98261904Y-110183809D01*
X98261904Y-110040952D01*
X98309523Y-109850476D01*
X98357142Y-109755238D01*
X98452380Y-109660000D01*
X98595238Y-109612380D01*
X98690476Y-109612380D01*
X98833333Y-109660000D01*
X98880952Y-109707619D01*
X99833333Y-110612380D02*
X99261904Y-110612380D01*
X99547619Y-110612380D02*
X99547619Y-109612380D01*
X99452380Y-109755238D01*
X99357142Y-109850476D01*
X99261904Y-109898095D01*
X100452380Y-109612380D02*
X100547619Y-109612380D01*
X100642857Y-109660000D01*
X100690476Y-109707619D01*
X100738095Y-109802857D01*
X100785714Y-109993333D01*
X100785714Y-110231428D01*
X100738095Y-110421904D01*
X100690476Y-110517142D01*
X100642857Y-110564761D01*
X100547619Y-110612380D01*
X100452380Y-110612380D01*
X100357142Y-110564761D01*
X100309523Y-110517142D01*
X100261904Y-110421904D01*
X100214285Y-110231428D01*
X100214285Y-109993333D01*
X100261904Y-109802857D01*
X100309523Y-109707619D01*
X100357142Y-109660000D01*
X100452380Y-109612380D01*
X101642857Y-109945714D02*
X101642857Y-110612380D01*
X101404761Y-109564761D02*
X101166666Y-110279047D01*
X101785714Y-110279047D01*
X113309523Y-111952380D02*
X113309523Y-110952380D01*
X113547619Y-110952380D01*
X113690476Y-111000000D01*
X113785714Y-111095238D01*
X113833333Y-111190476D01*
X113880952Y-111380952D01*
X113880952Y-111523809D01*
X113833333Y-111714285D01*
X113785714Y-111809523D01*
X113690476Y-111904761D01*
X113547619Y-111952380D01*
X113309523Y-111952380D01*
X114833333Y-111952380D02*
X114261904Y-111952380D01*
X114547619Y-111952380D02*
X114547619Y-110952380D01*
X114452380Y-111095238D01*
X114357142Y-111190476D01*
X114261904Y-111238095D01*
X115452380Y-110952380D02*
X115547619Y-110952380D01*
X115642857Y-111000000D01*
X115690476Y-111047619D01*
X115738095Y-111142857D01*
X115785714Y-111333333D01*
X115785714Y-111571428D01*
X115738095Y-111761904D01*
X115690476Y-111857142D01*
X115642857Y-111904761D01*
X115547619Y-111952380D01*
X115452380Y-111952380D01*
X115357142Y-111904761D01*
X115309523Y-111857142D01*
X115261904Y-111761904D01*
X115214285Y-111571428D01*
X115214285Y-111333333D01*
X115261904Y-111142857D01*
X115309523Y-111047619D01*
X115357142Y-111000000D01*
X115452380Y-110952380D01*
X116690476Y-110952380D02*
X116214285Y-110952380D01*
X116166666Y-111428571D01*
X116214285Y-111380952D01*
X116309523Y-111333333D01*
X116547619Y-111333333D01*
X116642857Y-111380952D01*
X116690476Y-111428571D01*
X116738095Y-111523809D01*
X116738095Y-111761904D01*
X116690476Y-111857142D01*
X116642857Y-111904761D01*
X116547619Y-111952380D01*
X116309523Y-111952380D01*
X116214285Y-111904761D01*
X116166666Y-111857142D01*
X111135714Y-113852380D02*
X110564285Y-113852380D01*
X110850000Y-113852380D02*
X110850000Y-112852380D01*
X110754761Y-112995238D01*
X110659523Y-113090476D01*
X110564285Y-113138095D01*
X90697142Y-102639047D02*
X90744761Y-102686666D01*
X90792380Y-102829523D01*
X90792380Y-102924761D01*
X90744761Y-103067619D01*
X90649523Y-103162857D01*
X90554285Y-103210476D01*
X90363809Y-103258095D01*
X90220952Y-103258095D01*
X90030476Y-103210476D01*
X89935238Y-103162857D01*
X89840000Y-103067619D01*
X89792380Y-102924761D01*
X89792380Y-102829523D01*
X89840000Y-102686666D01*
X89887619Y-102639047D01*
X90792380Y-101686666D02*
X90792380Y-102258095D01*
X90792380Y-101972380D02*
X89792380Y-101972380D01*
X89935238Y-102067619D01*
X90030476Y-102162857D01*
X90078095Y-102258095D01*
X89792380Y-101067619D02*
X89792380Y-100972380D01*
X89840000Y-100877142D01*
X89887619Y-100829523D01*
X89982857Y-100781904D01*
X90173333Y-100734285D01*
X90411428Y-100734285D01*
X90601904Y-100781904D01*
X90697142Y-100829523D01*
X90744761Y-100877142D01*
X90792380Y-100972380D01*
X90792380Y-101067619D01*
X90744761Y-101162857D01*
X90697142Y-101210476D01*
X90601904Y-101258095D01*
X90411428Y-101305714D01*
X90173333Y-101305714D01*
X89982857Y-101258095D01*
X89887619Y-101210476D01*
X89840000Y-101162857D01*
X89792380Y-101067619D01*
X89792380Y-99877142D02*
X89792380Y-100067619D01*
X89840000Y-100162857D01*
X89887619Y-100210476D01*
X90030476Y-100305714D01*
X90220952Y-100353333D01*
X90601904Y-100353333D01*
X90697142Y-100305714D01*
X90744761Y-100258095D01*
X90792380Y-100162857D01*
X90792380Y-99972380D01*
X90744761Y-99877142D01*
X90697142Y-99829523D01*
X90601904Y-99781904D01*
X90363809Y-99781904D01*
X90268571Y-99829523D01*
X90220952Y-99877142D01*
X90173333Y-99972380D01*
X90173333Y-100162857D01*
X90220952Y-100258095D01*
X90268571Y-100305714D01*
X90363809Y-100353333D01*
X98285714Y-119452380D02*
X98285714Y-118452380D01*
X98285714Y-118928571D02*
X98857142Y-118928571D01*
X98857142Y-119452380D02*
X98857142Y-118452380D01*
X99857142Y-119452380D02*
X99285714Y-119452380D01*
X99571428Y-119452380D02*
X99571428Y-118452380D01*
X99476190Y-118595238D01*
X99380952Y-118690476D01*
X99285714Y-118738095D01*
X100476190Y-118452380D02*
X100571428Y-118452380D01*
X100666666Y-118500000D01*
X100714285Y-118547619D01*
X100761904Y-118642857D01*
X100809523Y-118833333D01*
X100809523Y-119071428D01*
X100761904Y-119261904D01*
X100714285Y-119357142D01*
X100666666Y-119404761D01*
X100571428Y-119452380D01*
X100476190Y-119452380D01*
X100380952Y-119404761D01*
X100333333Y-119357142D01*
X100285714Y-119261904D01*
X100238095Y-119071428D01*
X100238095Y-118833333D01*
X100285714Y-118642857D01*
X100333333Y-118547619D01*
X100380952Y-118500000D01*
X100476190Y-118452380D01*
X101142857Y-118452380D02*
X101761904Y-118452380D01*
X101428571Y-118833333D01*
X101571428Y-118833333D01*
X101666666Y-118880952D01*
X101714285Y-118928571D01*
X101761904Y-119023809D01*
X101761904Y-119261904D01*
X101714285Y-119357142D01*
X101666666Y-119404761D01*
X101571428Y-119452380D01*
X101285714Y-119452380D01*
X101190476Y-119404761D01*
X101142857Y-119357142D01*
X95426190Y-99428571D02*
X95902380Y-99428571D01*
X94902380Y-99761904D02*
X95426190Y-99428571D01*
X94902380Y-99095238D01*
X95902380Y-98238095D02*
X95902380Y-98809523D01*
X95902380Y-98523809D02*
X94902380Y-98523809D01*
X95045238Y-98619047D01*
X95140476Y-98714285D01*
X95188095Y-98809523D01*
X94902380Y-97619047D02*
X94902380Y-97523809D01*
X94950000Y-97428571D01*
X94997619Y-97380952D01*
X95092857Y-97333333D01*
X95283333Y-97285714D01*
X95521428Y-97285714D01*
X95711904Y-97333333D01*
X95807142Y-97380952D01*
X95854761Y-97428571D01*
X95902380Y-97523809D01*
X95902380Y-97619047D01*
X95854761Y-97714285D01*
X95807142Y-97761904D01*
X95711904Y-97809523D01*
X95521428Y-97857142D01*
X95283333Y-97857142D01*
X95092857Y-97809523D01*
X94997619Y-97761904D01*
X94950000Y-97714285D01*
X94902380Y-97619047D01*
X95902380Y-96333333D02*
X95902380Y-96904761D01*
X95902380Y-96619047D02*
X94902380Y-96619047D01*
X95045238Y-96714285D01*
X95140476Y-96809523D01*
X95188095Y-96904761D01*
X88880952Y-95457142D02*
X88833333Y-95504761D01*
X88690476Y-95552380D01*
X88595238Y-95552380D01*
X88452380Y-95504761D01*
X88357142Y-95409523D01*
X88309523Y-95314285D01*
X88261904Y-95123809D01*
X88261904Y-94980952D01*
X88309523Y-94790476D01*
X88357142Y-94695238D01*
X88452380Y-94600000D01*
X88595238Y-94552380D01*
X88690476Y-94552380D01*
X88833333Y-94600000D01*
X88880952Y-94647619D01*
X89833333Y-95552380D02*
X89261904Y-95552380D01*
X89547619Y-95552380D02*
X89547619Y-94552380D01*
X89452380Y-94695238D01*
X89357142Y-94790476D01*
X89261904Y-94838095D01*
X90452380Y-94552380D02*
X90547619Y-94552380D01*
X90642857Y-94600000D01*
X90690476Y-94647619D01*
X90738095Y-94742857D01*
X90785714Y-94933333D01*
X90785714Y-95171428D01*
X90738095Y-95361904D01*
X90690476Y-95457142D01*
X90642857Y-95504761D01*
X90547619Y-95552380D01*
X90452380Y-95552380D01*
X90357142Y-95504761D01*
X90309523Y-95457142D01*
X90261904Y-95361904D01*
X90214285Y-95171428D01*
X90214285Y-94933333D01*
X90261904Y-94742857D01*
X90309523Y-94647619D01*
X90357142Y-94600000D01*
X90452380Y-94552380D01*
X91690476Y-94552380D02*
X91214285Y-94552380D01*
X91166666Y-95028571D01*
X91214285Y-94980952D01*
X91309523Y-94933333D01*
X91547619Y-94933333D01*
X91642857Y-94980952D01*
X91690476Y-95028571D01*
X91738095Y-95123809D01*
X91738095Y-95361904D01*
X91690476Y-95457142D01*
X91642857Y-95504761D01*
X91547619Y-95552380D01*
X91309523Y-95552380D01*
X91214285Y-95504761D01*
X91166666Y-95457142D01*
X98285714Y-95252380D02*
X98285714Y-96061904D01*
X98333333Y-96157142D01*
X98380952Y-96204761D01*
X98476190Y-96252380D01*
X98666666Y-96252380D01*
X98761904Y-96204761D01*
X98809523Y-96157142D01*
X98857142Y-96061904D01*
X98857142Y-95252380D01*
X99857142Y-96252380D02*
X99285714Y-96252380D01*
X99571428Y-96252380D02*
X99571428Y-95252380D01*
X99476190Y-95395238D01*
X99380952Y-95490476D01*
X99285714Y-95538095D01*
X100476190Y-95252380D02*
X100571428Y-95252380D01*
X100666666Y-95300000D01*
X100714285Y-95347619D01*
X100761904Y-95442857D01*
X100809523Y-95633333D01*
X100809523Y-95871428D01*
X100761904Y-96061904D01*
X100714285Y-96157142D01*
X100666666Y-96204761D01*
X100571428Y-96252380D01*
X100476190Y-96252380D01*
X100380952Y-96204761D01*
X100333333Y-96157142D01*
X100285714Y-96061904D01*
X100238095Y-95871428D01*
X100238095Y-95633333D01*
X100285714Y-95442857D01*
X100333333Y-95347619D01*
X100380952Y-95300000D01*
X100476190Y-95252380D01*
X101190476Y-95347619D02*
X101238095Y-95300000D01*
X101333333Y-95252380D01*
X101571428Y-95252380D01*
X101666666Y-95300000D01*
X101714285Y-95347619D01*
X101761904Y-95442857D01*
X101761904Y-95538095D01*
X101714285Y-95680952D01*
X101142857Y-96252380D01*
X101761904Y-96252380D01*
X91309523Y-82102380D02*
X91309523Y-81102380D01*
X91547619Y-81102380D01*
X91690476Y-81150000D01*
X91785714Y-81245238D01*
X91833333Y-81340476D01*
X91880952Y-81530952D01*
X91880952Y-81673809D01*
X91833333Y-81864285D01*
X91785714Y-81959523D01*
X91690476Y-82054761D01*
X91547619Y-82102380D01*
X91309523Y-82102380D01*
X92833333Y-82102380D02*
X92261904Y-82102380D01*
X92547619Y-82102380D02*
X92547619Y-81102380D01*
X92452380Y-81245238D01*
X92357142Y-81340476D01*
X92261904Y-81388095D01*
X93452380Y-81102380D02*
X93547619Y-81102380D01*
X93642857Y-81150000D01*
X93690476Y-81197619D01*
X93738095Y-81292857D01*
X93785714Y-81483333D01*
X93785714Y-81721428D01*
X93738095Y-81911904D01*
X93690476Y-82007142D01*
X93642857Y-82054761D01*
X93547619Y-82102380D01*
X93452380Y-82102380D01*
X93357142Y-82054761D01*
X93309523Y-82007142D01*
X93261904Y-81911904D01*
X93214285Y-81721428D01*
X93214285Y-81483333D01*
X93261904Y-81292857D01*
X93309523Y-81197619D01*
X93357142Y-81150000D01*
X93452380Y-81102380D01*
X94738095Y-82102380D02*
X94166666Y-82102380D01*
X94452380Y-82102380D02*
X94452380Y-81102380D01*
X94357142Y-81245238D01*
X94261904Y-81340476D01*
X94166666Y-81388095D01*
X82880952Y-110357142D02*
X82833333Y-110404761D01*
X82690476Y-110452380D01*
X82595238Y-110452380D01*
X82452380Y-110404761D01*
X82357142Y-110309523D01*
X82309523Y-110214285D01*
X82261904Y-110023809D01*
X82261904Y-109880952D01*
X82309523Y-109690476D01*
X82357142Y-109595238D01*
X82452380Y-109500000D01*
X82595238Y-109452380D01*
X82690476Y-109452380D01*
X82833333Y-109500000D01*
X82880952Y-109547619D01*
X83833333Y-110452380D02*
X83261904Y-110452380D01*
X83547619Y-110452380D02*
X83547619Y-109452380D01*
X83452380Y-109595238D01*
X83357142Y-109690476D01*
X83261904Y-109738095D01*
X84452380Y-109452380D02*
X84547619Y-109452380D01*
X84642857Y-109500000D01*
X84690476Y-109547619D01*
X84738095Y-109642857D01*
X84785714Y-109833333D01*
X84785714Y-110071428D01*
X84738095Y-110261904D01*
X84690476Y-110357142D01*
X84642857Y-110404761D01*
X84547619Y-110452380D01*
X84452380Y-110452380D01*
X84357142Y-110404761D01*
X84309523Y-110357142D01*
X84261904Y-110261904D01*
X84214285Y-110071428D01*
X84214285Y-109833333D01*
X84261904Y-109642857D01*
X84309523Y-109547619D01*
X84357142Y-109500000D01*
X84452380Y-109452380D01*
X85738095Y-110452380D02*
X85166666Y-110452380D01*
X85452380Y-110452380D02*
X85452380Y-109452380D01*
X85357142Y-109595238D01*
X85261904Y-109690476D01*
X85166666Y-109738095D01*
X84785714Y-104042380D02*
X84785714Y-104851904D01*
X84833333Y-104947142D01*
X84880952Y-104994761D01*
X84976190Y-105042380D01*
X85166666Y-105042380D01*
X85261904Y-104994761D01*
X85309523Y-104947142D01*
X85357142Y-104851904D01*
X85357142Y-104042380D01*
X86357142Y-105042380D02*
X85785714Y-105042380D01*
X86071428Y-105042380D02*
X86071428Y-104042380D01*
X85976190Y-104185238D01*
X85880952Y-104280476D01*
X85785714Y-104328095D01*
X86976190Y-104042380D02*
X87071428Y-104042380D01*
X87166666Y-104090000D01*
X87214285Y-104137619D01*
X87261904Y-104232857D01*
X87309523Y-104423333D01*
X87309523Y-104661428D01*
X87261904Y-104851904D01*
X87214285Y-104947142D01*
X87166666Y-104994761D01*
X87071428Y-105042380D01*
X86976190Y-105042380D01*
X86880952Y-104994761D01*
X86833333Y-104947142D01*
X86785714Y-104851904D01*
X86738095Y-104661428D01*
X86738095Y-104423333D01*
X86785714Y-104232857D01*
X86833333Y-104137619D01*
X86880952Y-104090000D01*
X86976190Y-104042380D01*
X88261904Y-105042380D02*
X87690476Y-105042380D01*
X87976190Y-105042380D02*
X87976190Y-104042380D01*
X87880952Y-104185238D01*
X87785714Y-104280476D01*
X87690476Y-104328095D01*
X83309523Y-111952380D02*
X83309523Y-110952380D01*
X83547619Y-110952380D01*
X83690476Y-111000000D01*
X83785714Y-111095238D01*
X83833333Y-111190476D01*
X83880952Y-111380952D01*
X83880952Y-111523809D01*
X83833333Y-111714285D01*
X83785714Y-111809523D01*
X83690476Y-111904761D01*
X83547619Y-111952380D01*
X83309523Y-111952380D01*
X84833333Y-111952380D02*
X84261904Y-111952380D01*
X84547619Y-111952380D02*
X84547619Y-110952380D01*
X84452380Y-111095238D01*
X84357142Y-111190476D01*
X84261904Y-111238095D01*
X85452380Y-110952380D02*
X85547619Y-110952380D01*
X85642857Y-111000000D01*
X85690476Y-111047619D01*
X85738095Y-111142857D01*
X85785714Y-111333333D01*
X85785714Y-111571428D01*
X85738095Y-111761904D01*
X85690476Y-111857142D01*
X85642857Y-111904761D01*
X85547619Y-111952380D01*
X85452380Y-111952380D01*
X85357142Y-111904761D01*
X85309523Y-111857142D01*
X85261904Y-111761904D01*
X85214285Y-111571428D01*
X85214285Y-111333333D01*
X85261904Y-111142857D01*
X85309523Y-111047619D01*
X85357142Y-111000000D01*
X85452380Y-110952380D01*
X86642857Y-111285714D02*
X86642857Y-111952380D01*
X86404761Y-110904761D02*
X86166666Y-111619047D01*
X86785714Y-111619047D01*
X81135714Y-113852380D02*
X80564285Y-113852380D01*
X80850000Y-113852380D02*
X80850000Y-112852380D01*
X80754761Y-112995238D01*
X80659523Y-113090476D01*
X80564285Y-113138095D01*
X113309523Y-81952380D02*
X113309523Y-80952380D01*
X113547619Y-80952380D01*
X113690476Y-81000000D01*
X113785714Y-81095238D01*
X113833333Y-81190476D01*
X113880952Y-81380952D01*
X113880952Y-81523809D01*
X113833333Y-81714285D01*
X113785714Y-81809523D01*
X113690476Y-81904761D01*
X113547619Y-81952380D01*
X113309523Y-81952380D01*
X114833333Y-81952380D02*
X114261904Y-81952380D01*
X114547619Y-81952380D02*
X114547619Y-80952380D01*
X114452380Y-81095238D01*
X114357142Y-81190476D01*
X114261904Y-81238095D01*
X115452380Y-80952380D02*
X115547619Y-80952380D01*
X115642857Y-81000000D01*
X115690476Y-81047619D01*
X115738095Y-81142857D01*
X115785714Y-81333333D01*
X115785714Y-81571428D01*
X115738095Y-81761904D01*
X115690476Y-81857142D01*
X115642857Y-81904761D01*
X115547619Y-81952380D01*
X115452380Y-81952380D01*
X115357142Y-81904761D01*
X115309523Y-81857142D01*
X115261904Y-81761904D01*
X115214285Y-81571428D01*
X115214285Y-81333333D01*
X115261904Y-81142857D01*
X115309523Y-81047619D01*
X115357142Y-81000000D01*
X115452380Y-80952380D01*
X116166666Y-81047619D02*
X116214285Y-81000000D01*
X116309523Y-80952380D01*
X116547619Y-80952380D01*
X116642857Y-81000000D01*
X116690476Y-81047619D01*
X116738095Y-81142857D01*
X116738095Y-81238095D01*
X116690476Y-81380952D01*
X116119047Y-81952380D01*
X116738095Y-81952380D01*
X111135714Y-83852380D02*
X110564285Y-83852380D01*
X110850000Y-83852380D02*
X110850000Y-82852380D01*
X110754761Y-82995238D01*
X110659523Y-83090476D01*
X110564285Y-83138095D01*
X95214285Y-91452380D02*
X95214285Y-92166666D01*
X95166666Y-92309523D01*
X95071428Y-92404761D01*
X94928571Y-92452380D01*
X94833333Y-92452380D01*
X95690476Y-92452380D02*
X95690476Y-91452380D01*
X96071428Y-91452380D01*
X96166666Y-91500000D01*
X96214285Y-91547619D01*
X96261904Y-91642857D01*
X96261904Y-91785714D01*
X96214285Y-91880952D01*
X96166666Y-91928571D01*
X96071428Y-91976190D01*
X95690476Y-91976190D01*
X97214285Y-92452380D02*
X96642857Y-92452380D01*
X96928571Y-92452380D02*
X96928571Y-91452380D01*
X96833333Y-91595238D01*
X96738095Y-91690476D01*
X96642857Y-91738095D01*
X97833333Y-91452380D02*
X97928571Y-91452380D01*
X98023809Y-91500000D01*
X98071428Y-91547619D01*
X98119047Y-91642857D01*
X98166666Y-91833333D01*
X98166666Y-92071428D01*
X98119047Y-92261904D01*
X98071428Y-92357142D01*
X98023809Y-92404761D01*
X97928571Y-92452380D01*
X97833333Y-92452380D01*
X97738095Y-92404761D01*
X97690476Y-92357142D01*
X97642857Y-92261904D01*
X97595238Y-92071428D01*
X97595238Y-91833333D01*
X97642857Y-91642857D01*
X97690476Y-91547619D01*
X97738095Y-91500000D01*
X97833333Y-91452380D01*
X98547619Y-91547619D02*
X98595238Y-91500000D01*
X98690476Y-91452380D01*
X98928571Y-91452380D01*
X99023809Y-91500000D01*
X99071428Y-91547619D01*
X99119047Y-91642857D01*
X99119047Y-91738095D01*
X99071428Y-91880952D01*
X98500000Y-92452380D01*
X99119047Y-92452380D01*
X92214285Y-103252380D02*
X92214285Y-103966666D01*
X92166666Y-104109523D01*
X92071428Y-104204761D01*
X91928571Y-104252380D01*
X91833333Y-104252380D01*
X92690476Y-104252380D02*
X92690476Y-103252380D01*
X93071428Y-103252380D01*
X93166666Y-103300000D01*
X93214285Y-103347619D01*
X93261904Y-103442857D01*
X93261904Y-103585714D01*
X93214285Y-103680952D01*
X93166666Y-103728571D01*
X93071428Y-103776190D01*
X92690476Y-103776190D01*
X94214285Y-104252380D02*
X93642857Y-104252380D01*
X93928571Y-104252380D02*
X93928571Y-103252380D01*
X93833333Y-103395238D01*
X93738095Y-103490476D01*
X93642857Y-103538095D01*
X94833333Y-103252380D02*
X94928571Y-103252380D01*
X95023809Y-103300000D01*
X95071428Y-103347619D01*
X95119047Y-103442857D01*
X95166666Y-103633333D01*
X95166666Y-103871428D01*
X95119047Y-104061904D01*
X95071428Y-104157142D01*
X95023809Y-104204761D01*
X94928571Y-104252380D01*
X94833333Y-104252380D01*
X94738095Y-104204761D01*
X94690476Y-104157142D01*
X94642857Y-104061904D01*
X94595238Y-103871428D01*
X94595238Y-103633333D01*
X94642857Y-103442857D01*
X94690476Y-103347619D01*
X94738095Y-103300000D01*
X94833333Y-103252380D01*
X96119047Y-104252380D02*
X95547619Y-104252380D01*
X95833333Y-104252380D02*
X95833333Y-103252380D01*
X95738095Y-103395238D01*
X95642857Y-103490476D01*
X95547619Y-103538095D01*
X91380952Y-94252380D02*
X91047619Y-93776190D01*
X90809523Y-94252380D02*
X90809523Y-93252380D01*
X91190476Y-93252380D01*
X91285714Y-93300000D01*
X91333333Y-93347619D01*
X91380952Y-93442857D01*
X91380952Y-93585714D01*
X91333333Y-93680952D01*
X91285714Y-93728571D01*
X91190476Y-93776190D01*
X90809523Y-93776190D01*
X92333333Y-94252380D02*
X91761904Y-94252380D01*
X92047619Y-94252380D02*
X92047619Y-93252380D01*
X91952380Y-93395238D01*
X91857142Y-93490476D01*
X91761904Y-93538095D01*
X92952380Y-93252380D02*
X93047619Y-93252380D01*
X93142857Y-93300000D01*
X93190476Y-93347619D01*
X93238095Y-93442857D01*
X93285714Y-93633333D01*
X93285714Y-93871428D01*
X93238095Y-94061904D01*
X93190476Y-94157142D01*
X93142857Y-94204761D01*
X93047619Y-94252380D01*
X92952380Y-94252380D01*
X92857142Y-94204761D01*
X92809523Y-94157142D01*
X92761904Y-94061904D01*
X92714285Y-93871428D01*
X92714285Y-93633333D01*
X92761904Y-93442857D01*
X92809523Y-93347619D01*
X92857142Y-93300000D01*
X92952380Y-93252380D01*
X93666666Y-93347619D02*
X93714285Y-93300000D01*
X93809523Y-93252380D01*
X94047619Y-93252380D01*
X94142857Y-93300000D01*
X94190476Y-93347619D01*
X94238095Y-93442857D01*
X94238095Y-93538095D01*
X94190476Y-93680952D01*
X93619047Y-94252380D01*
X94238095Y-94252380D01*
X83857142Y-108119047D02*
X83904761Y-108166666D01*
X83952380Y-108309523D01*
X83952380Y-108404761D01*
X83904761Y-108547619D01*
X83809523Y-108642857D01*
X83714285Y-108690476D01*
X83523809Y-108738095D01*
X83380952Y-108738095D01*
X83190476Y-108690476D01*
X83095238Y-108642857D01*
X83000000Y-108547619D01*
X82952380Y-108404761D01*
X82952380Y-108309523D01*
X83000000Y-108166666D01*
X83047619Y-108119047D01*
X83952380Y-107166666D02*
X83952380Y-107738095D01*
X83952380Y-107452380D02*
X82952380Y-107452380D01*
X83095238Y-107547619D01*
X83190476Y-107642857D01*
X83238095Y-107738095D01*
X82952380Y-106547619D02*
X82952380Y-106452380D01*
X83000000Y-106357142D01*
X83047619Y-106309523D01*
X83142857Y-106261904D01*
X83333333Y-106214285D01*
X83571428Y-106214285D01*
X83761904Y-106261904D01*
X83857142Y-106309523D01*
X83904761Y-106357142D01*
X83952380Y-106452380D01*
X83952380Y-106547619D01*
X83904761Y-106642857D01*
X83857142Y-106690476D01*
X83761904Y-106738095D01*
X83571428Y-106785714D01*
X83333333Y-106785714D01*
X83142857Y-106738095D01*
X83047619Y-106690476D01*
X83000000Y-106642857D01*
X82952380Y-106547619D01*
X83047619Y-105833333D02*
X83000000Y-105785714D01*
X82952380Y-105690476D01*
X82952380Y-105452380D01*
X83000000Y-105357142D01*
X83047619Y-105309523D01*
X83142857Y-105261904D01*
X83238095Y-105261904D01*
X83380952Y-105309523D01*
X83952380Y-105880952D01*
X83952380Y-105261904D01*
X83285714Y-96702380D02*
X83285714Y-95702380D01*
X83285714Y-96178571D02*
X83857142Y-96178571D01*
X83857142Y-96702380D02*
X83857142Y-95702380D01*
X84857142Y-96702380D02*
X84285714Y-96702380D01*
X84571428Y-96702380D02*
X84571428Y-95702380D01*
X84476190Y-95845238D01*
X84380952Y-95940476D01*
X84285714Y-95988095D01*
X85476190Y-95702380D02*
X85571428Y-95702380D01*
X85666666Y-95750000D01*
X85714285Y-95797619D01*
X85761904Y-95892857D01*
X85809523Y-96083333D01*
X85809523Y-96321428D01*
X85761904Y-96511904D01*
X85714285Y-96607142D01*
X85666666Y-96654761D01*
X85571428Y-96702380D01*
X85476190Y-96702380D01*
X85380952Y-96654761D01*
X85333333Y-96607142D01*
X85285714Y-96511904D01*
X85238095Y-96321428D01*
X85238095Y-96083333D01*
X85285714Y-95892857D01*
X85333333Y-95797619D01*
X85380952Y-95750000D01*
X85476190Y-95702380D01*
X86666666Y-96035714D02*
X86666666Y-96702380D01*
X86428571Y-95654761D02*
X86190476Y-96369047D01*
X86809523Y-96369047D01*
X113285714Y-104452380D02*
X113285714Y-103452380D01*
X113285714Y-103928571D02*
X113857142Y-103928571D01*
X113857142Y-104452380D02*
X113857142Y-103452380D01*
X114857142Y-104452380D02*
X114285714Y-104452380D01*
X114571428Y-104452380D02*
X114571428Y-103452380D01*
X114476190Y-103595238D01*
X114380952Y-103690476D01*
X114285714Y-103738095D01*
X115476190Y-103452380D02*
X115571428Y-103452380D01*
X115666666Y-103500000D01*
X115714285Y-103547619D01*
X115761904Y-103642857D01*
X115809523Y-103833333D01*
X115809523Y-104071428D01*
X115761904Y-104261904D01*
X115714285Y-104357142D01*
X115666666Y-104404761D01*
X115571428Y-104452380D01*
X115476190Y-104452380D01*
X115380952Y-104404761D01*
X115333333Y-104357142D01*
X115285714Y-104261904D01*
X115238095Y-104071428D01*
X115238095Y-103833333D01*
X115285714Y-103642857D01*
X115333333Y-103547619D01*
X115380952Y-103500000D01*
X115476190Y-103452380D01*
X116190476Y-103547619D02*
X116238095Y-103500000D01*
X116333333Y-103452380D01*
X116571428Y-103452380D01*
X116666666Y-103500000D01*
X116714285Y-103547619D01*
X116761904Y-103642857D01*
X116761904Y-103738095D01*
X116714285Y-103880952D01*
X116142857Y-104452380D01*
X116761904Y-104452380D01*
X102880952Y-109357142D02*
X102833333Y-109404761D01*
X102690476Y-109452380D01*
X102595238Y-109452380D01*
X102452380Y-109404761D01*
X102357142Y-109309523D01*
X102309523Y-109214285D01*
X102261904Y-109023809D01*
X102261904Y-108880952D01*
X102309523Y-108690476D01*
X102357142Y-108595238D01*
X102452380Y-108500000D01*
X102595238Y-108452380D01*
X102690476Y-108452380D01*
X102833333Y-108500000D01*
X102880952Y-108547619D01*
X103833333Y-109452380D02*
X103261904Y-109452380D01*
X103547619Y-109452380D02*
X103547619Y-108452380D01*
X103452380Y-108595238D01*
X103357142Y-108690476D01*
X103261904Y-108738095D01*
X104452380Y-108452380D02*
X104547619Y-108452380D01*
X104642857Y-108500000D01*
X104690476Y-108547619D01*
X104738095Y-108642857D01*
X104785714Y-108833333D01*
X104785714Y-109071428D01*
X104738095Y-109261904D01*
X104690476Y-109357142D01*
X104642857Y-109404761D01*
X104547619Y-109452380D01*
X104452380Y-109452380D01*
X104357142Y-109404761D01*
X104309523Y-109357142D01*
X104261904Y-109261904D01*
X104214285Y-109071428D01*
X104214285Y-108833333D01*
X104261904Y-108642857D01*
X104309523Y-108547619D01*
X104357142Y-108500000D01*
X104452380Y-108452380D01*
X105119047Y-108452380D02*
X105738095Y-108452380D01*
X105404761Y-108833333D01*
X105547619Y-108833333D01*
X105642857Y-108880952D01*
X105690476Y-108928571D01*
X105738095Y-109023809D01*
X105738095Y-109261904D01*
X105690476Y-109357142D01*
X105642857Y-109404761D01*
X105547619Y-109452380D01*
X105261904Y-109452380D01*
X105166666Y-109404761D01*
X105119047Y-109357142D01*
X91265714Y-85052380D02*
X91265714Y-85861904D01*
X91313333Y-85957142D01*
X91360952Y-86004761D01*
X91456190Y-86052380D01*
X91646666Y-86052380D01*
X91741904Y-86004761D01*
X91789523Y-85957142D01*
X91837142Y-85861904D01*
X91837142Y-85052380D01*
X92837142Y-86052380D02*
X92265714Y-86052380D01*
X92551428Y-86052380D02*
X92551428Y-85052380D01*
X92456190Y-85195238D01*
X92360952Y-85290476D01*
X92265714Y-85338095D01*
X93456190Y-85052380D02*
X93551428Y-85052380D01*
X93646666Y-85100000D01*
X93694285Y-85147619D01*
X93741904Y-85242857D01*
X93789523Y-85433333D01*
X93789523Y-85671428D01*
X93741904Y-85861904D01*
X93694285Y-85957142D01*
X93646666Y-86004761D01*
X93551428Y-86052380D01*
X93456190Y-86052380D01*
X93360952Y-86004761D01*
X93313333Y-85957142D01*
X93265714Y-85861904D01*
X93218095Y-85671428D01*
X93218095Y-85433333D01*
X93265714Y-85242857D01*
X93313333Y-85147619D01*
X93360952Y-85100000D01*
X93456190Y-85052380D01*
X94122857Y-85052380D02*
X94741904Y-85052380D01*
X94408571Y-85433333D01*
X94551428Y-85433333D01*
X94646666Y-85480952D01*
X94694285Y-85528571D01*
X94741904Y-85623809D01*
X94741904Y-85861904D01*
X94694285Y-85957142D01*
X94646666Y-86004761D01*
X94551428Y-86052380D01*
X94265714Y-86052380D01*
X94170476Y-86004761D01*
X94122857Y-85957142D01*
X98285714Y-81702380D02*
X98285714Y-80702380D01*
X98285714Y-81178571D02*
X98857142Y-81178571D01*
X98857142Y-81702380D02*
X98857142Y-80702380D01*
X99857142Y-81702380D02*
X99285714Y-81702380D01*
X99571428Y-81702380D02*
X99571428Y-80702380D01*
X99476190Y-80845238D01*
X99380952Y-80940476D01*
X99285714Y-80988095D01*
X100476190Y-80702380D02*
X100571428Y-80702380D01*
X100666666Y-80750000D01*
X100714285Y-80797619D01*
X100761904Y-80892857D01*
X100809523Y-81083333D01*
X100809523Y-81321428D01*
X100761904Y-81511904D01*
X100714285Y-81607142D01*
X100666666Y-81654761D01*
X100571428Y-81702380D01*
X100476190Y-81702380D01*
X100380952Y-81654761D01*
X100333333Y-81607142D01*
X100285714Y-81511904D01*
X100238095Y-81321428D01*
X100238095Y-81083333D01*
X100285714Y-80892857D01*
X100333333Y-80797619D01*
X100380952Y-80750000D01*
X100476190Y-80702380D01*
X101761904Y-81702380D02*
X101190476Y-81702380D01*
X101476190Y-81702380D02*
X101476190Y-80702380D01*
X101380952Y-80845238D01*
X101285714Y-80940476D01*
X101190476Y-80988095D01*
X100880952Y-104952380D02*
X100547619Y-104476190D01*
X100309523Y-104952380D02*
X100309523Y-103952380D01*
X100690476Y-103952380D01*
X100785714Y-104000000D01*
X100833333Y-104047619D01*
X100880952Y-104142857D01*
X100880952Y-104285714D01*
X100833333Y-104380952D01*
X100785714Y-104428571D01*
X100690476Y-104476190D01*
X100309523Y-104476190D01*
X101833333Y-104952380D02*
X101261904Y-104952380D01*
X101547619Y-104952380D02*
X101547619Y-103952380D01*
X101452380Y-104095238D01*
X101357142Y-104190476D01*
X101261904Y-104238095D01*
X102452380Y-103952380D02*
X102547619Y-103952380D01*
X102642857Y-104000000D01*
X102690476Y-104047619D01*
X102738095Y-104142857D01*
X102785714Y-104333333D01*
X102785714Y-104571428D01*
X102738095Y-104761904D01*
X102690476Y-104857142D01*
X102642857Y-104904761D01*
X102547619Y-104952380D01*
X102452380Y-104952380D01*
X102357142Y-104904761D01*
X102309523Y-104857142D01*
X102261904Y-104761904D01*
X102214285Y-104571428D01*
X102214285Y-104333333D01*
X102261904Y-104142857D01*
X102309523Y-104047619D01*
X102357142Y-104000000D01*
X102452380Y-103952380D01*
X103738095Y-104952380D02*
X103166666Y-104952380D01*
X103452380Y-104952380D02*
X103452380Y-103952380D01*
X103357142Y-104095238D01*
X103261904Y-104190476D01*
X103166666Y-104238095D01*
X83309523Y-81952380D02*
X83309523Y-80952380D01*
X83547619Y-80952380D01*
X83690476Y-81000000D01*
X83785714Y-81095238D01*
X83833333Y-81190476D01*
X83880952Y-81380952D01*
X83880952Y-81523809D01*
X83833333Y-81714285D01*
X83785714Y-81809523D01*
X83690476Y-81904761D01*
X83547619Y-81952380D01*
X83309523Y-81952380D01*
X84833333Y-81952380D02*
X84261904Y-81952380D01*
X84547619Y-81952380D02*
X84547619Y-80952380D01*
X84452380Y-81095238D01*
X84357142Y-81190476D01*
X84261904Y-81238095D01*
X85452380Y-80952380D02*
X85547619Y-80952380D01*
X85642857Y-81000000D01*
X85690476Y-81047619D01*
X85738095Y-81142857D01*
X85785714Y-81333333D01*
X85785714Y-81571428D01*
X85738095Y-81761904D01*
X85690476Y-81857142D01*
X85642857Y-81904761D01*
X85547619Y-81952380D01*
X85452380Y-81952380D01*
X85357142Y-81904761D01*
X85309523Y-81857142D01*
X85261904Y-81761904D01*
X85214285Y-81571428D01*
X85214285Y-81333333D01*
X85261904Y-81142857D01*
X85309523Y-81047619D01*
X85357142Y-81000000D01*
X85452380Y-80952380D01*
X86119047Y-80952380D02*
X86738095Y-80952380D01*
X86404761Y-81333333D01*
X86547619Y-81333333D01*
X86642857Y-81380952D01*
X86690476Y-81428571D01*
X86738095Y-81523809D01*
X86738095Y-81761904D01*
X86690476Y-81857142D01*
X86642857Y-81904761D01*
X86547619Y-81952380D01*
X86261904Y-81952380D01*
X86166666Y-81904761D01*
X86119047Y-81857142D01*
X81135714Y-83852380D02*
X80564285Y-83852380D01*
X80850000Y-83852380D02*
X80850000Y-82852380D01*
X80754761Y-82995238D01*
X80659523Y-83090476D01*
X80564285Y-83138095D01*
X109452380Y-97285714D02*
X110166666Y-97285714D01*
X110309523Y-97333333D01*
X110404761Y-97428571D01*
X110452380Y-97571428D01*
X110452380Y-97666666D01*
X110452380Y-96285714D02*
X110452380Y-96857142D01*
X110452380Y-96571428D02*
X109452380Y-96571428D01*
X109595238Y-96666666D01*
X109690476Y-96761904D01*
X109738095Y-96857142D01*
X109452380Y-95666666D02*
X109452380Y-95571428D01*
X109500000Y-95476190D01*
X109547619Y-95428571D01*
X109642857Y-95380952D01*
X109833333Y-95333333D01*
X110071428Y-95333333D01*
X110261904Y-95380952D01*
X110357142Y-95428571D01*
X110404761Y-95476190D01*
X110452380Y-95571428D01*
X110452380Y-95666666D01*
X110404761Y-95761904D01*
X110357142Y-95809523D01*
X110261904Y-95857142D01*
X110071428Y-95904761D01*
X109833333Y-95904761D01*
X109642857Y-95857142D01*
X109547619Y-95809523D01*
X109500000Y-95761904D01*
X109452380Y-95666666D01*
X109452380Y-95000000D02*
X109452380Y-94380952D01*
X109833333Y-94714285D01*
X109833333Y-94571428D01*
X109880952Y-94476190D01*
X109928571Y-94428571D01*
X110023809Y-94380952D01*
X110261904Y-94380952D01*
X110357142Y-94428571D01*
X110404761Y-94476190D01*
X110452380Y-94571428D01*
X110452380Y-94857142D01*
X110404761Y-94952380D01*
X110357142Y-95000000D01*
D11*
X100107836Y-109360000D02*
X99892164Y-109360000D01*
X100107836Y-108640000D02*
X99892164Y-108640000D01*
X111350000Y-112250000D02*
X118650000Y-112250000D01*
X111350000Y-117750000D02*
X118650000Y-117750000D01*
X118650000Y-117750000D02*
X118650000Y-116600000D01*
X91140000Y-101627836D02*
X91140000Y-101412164D01*
X91860000Y-101627836D02*
X91860000Y-101412164D01*
X94650000Y-96000000D02*
X91350000Y-96000000D01*
X91350000Y-96000000D02*
X91350000Y-100000000D01*
X92872164Y-94640000D02*
X93087836Y-94640000D01*
X92872164Y-95360000D02*
X93087836Y-95360000D01*
X100000000Y-103385000D02*
X102200000Y-103385000D01*
X100000000Y-96615000D02*
X102200000Y-96615000D01*
X100000000Y-103385000D02*
X97800000Y-103385000D01*
X100000000Y-96615000D02*
X96400000Y-96615000D01*
X91500000Y-82650000D02*
X94050000Y-82650000D01*
X91500000Y-84350000D02*
X94050000Y-84350000D01*
X91500000Y-82650000D02*
X91500000Y-84350000D01*
X87935000Y-110310000D02*
X87935000Y-106400000D01*
X86065000Y-110310000D02*
X87935000Y-110310000D01*
X86065000Y-106400000D02*
X86065000Y-110310000D01*
X94910000Y-111410000D02*
X94910000Y-110150000D01*
X94910000Y-104590000D02*
X94910000Y-105850000D01*
X91150000Y-111410000D02*
X94910000Y-111410000D01*
X88900000Y-104590000D02*
X94910000Y-104590000D01*
X81350000Y-112250000D02*
X88650000Y-112250000D01*
X88650000Y-117750000D02*
X88650000Y-116600000D01*
X81350000Y-117750000D02*
X88650000Y-117750000D01*
X111350000Y-82250000D02*
X118650000Y-82250000D01*
X111350000Y-87750000D02*
X118650000Y-87750000D01*
X118650000Y-87750000D02*
X118650000Y-86600000D01*
X98000000Y-93800000D02*
X98000000Y-95200000D01*
X96700000Y-93100000D02*
X97300000Y-93100000D01*
X96000000Y-95200000D02*
X96000000Y-93800000D01*
X97300000Y-95900000D02*
X96700000Y-95900000D01*
X98000000Y-93800000D02*
G75*
G03*
X97300000Y-93100000I-699999J1D01*
G01*
X96700000Y-93100000D02*
G75*
G03*
X96000000Y-93800000I-1J-699999D01*
G01*
X96000000Y-95200000D02*
G75*
G03*
X96700000Y-95900000I700000J0D01*
G01*
X97300000Y-95900000D02*
G75*
G03*
X98000000Y-95200000I0J700000D01*
G01*
G36*
X107987528Y-114234619D02*
G01*
X107998908Y-114253693D01*
X108024488Y-114297421D01*
X108063002Y-114363619D01*
X108113186Y-114450102D01*
X108173775Y-114554685D01*
X108243503Y-114675183D01*
X108321107Y-114809412D01*
X108405320Y-114955187D01*
X108494879Y-115110323D01*
X108586998Y-115270000D01*
X108681076Y-115433117D01*
X108771402Y-115589709D01*
X108856665Y-115737506D01*
X108935557Y-115874240D01*
X109006769Y-115997642D01*
X109068991Y-116105444D01*
X109120913Y-116195377D01*
X109161228Y-116265173D01*
X109188624Y-116312564D01*
X109201507Y-116334786D01*
X109222507Y-116372330D01*
X109233925Y-116395831D01*
X109234551Y-116399920D01*
X109220636Y-116392242D01*
X109181941Y-116370203D01*
X109120487Y-116334971D01*
X109038298Y-116287711D01*
X108937396Y-116229589D01*
X108819805Y-116161771D01*
X108687546Y-116085424D01*
X108542642Y-116001714D01*
X108387117Y-115911806D01*
X108222992Y-115816867D01*
X108160549Y-115780732D01*
X107993487Y-115684083D01*
X107834074Y-115591938D01*
X107684355Y-115505475D01*
X107546376Y-115425871D01*
X107422185Y-115354305D01*
X107313827Y-115291955D01*
X107223348Y-115239998D01*
X107152796Y-115199613D01*
X107104215Y-115171978D01*
X107079654Y-115158272D01*
X107077085Y-115156974D01*
X107084569Y-115145220D01*
X107110614Y-115113795D01*
X107152559Y-115065594D01*
X107207746Y-115003510D01*
X107273517Y-114930439D01*
X107347212Y-114849276D01*
X107426173Y-114762916D01*
X107507740Y-114674253D01*
X107589254Y-114586182D01*
X107668057Y-114501599D01*
X107741490Y-114423397D01*
X107806893Y-114354472D01*
X107861608Y-114297719D01*
X107902977Y-114256032D01*
X107917164Y-114242363D01*
X107964180Y-114198201D01*
X107987528Y-114234619D01*
G37*
D12*
X107987528Y-114234619D02*
X107998908Y-114253693D01*
X108024488Y-114297421D01*
X108063002Y-114363619D01*
X108113186Y-114450102D01*
X108173775Y-114554685D01*
X108243503Y-114675183D01*
X108321107Y-114809412D01*
X108405320Y-114955187D01*
X108494879Y-115110323D01*
X108586998Y-115270000D01*
X108681076Y-115433117D01*
X108771402Y-115589709D01*
X108856665Y-115737506D01*
X108935557Y-115874240D01*
X109006769Y-115997642D01*
X109068991Y-116105444D01*
X109120913Y-116195377D01*
X109161228Y-116265173D01*
X109188624Y-116312564D01*
X109201507Y-116334786D01*
X109222507Y-116372330D01*
X109233925Y-116395831D01*
X109234551Y-116399920D01*
X109220636Y-116392242D01*
X109181941Y-116370203D01*
X109120487Y-116334971D01*
X109038298Y-116287711D01*
X108937396Y-116229589D01*
X108819805Y-116161771D01*
X108687546Y-116085424D01*
X108542642Y-116001714D01*
X108387117Y-115911806D01*
X108222992Y-115816867D01*
X108160549Y-115780732D01*
X107993487Y-115684083D01*
X107834074Y-115591938D01*
X107684355Y-115505475D01*
X107546376Y-115425871D01*
X107422185Y-115354305D01*
X107313827Y-115291955D01*
X107223348Y-115239998D01*
X107152796Y-115199613D01*
X107104215Y-115171978D01*
X107079654Y-115158272D01*
X107077085Y-115156974D01*
X107084569Y-115145220D01*
X107110614Y-115113795D01*
X107152559Y-115065594D01*
X107207746Y-115003510D01*
X107273517Y-114930439D01*
X107347212Y-114849276D01*
X107426173Y-114762916D01*
X107507740Y-114674253D01*
X107589254Y-114586182D01*
X107668057Y-114501599D01*
X107741490Y-114423397D01*
X107806893Y-114354472D01*
X107861608Y-114297719D01*
X107902977Y-114256032D01*
X107917164Y-114242363D01*
X107964180Y-114198201D01*
X107987528Y-114234619D01*
G36*
X106164043Y-111085835D02*
G01*
X106187065Y-111123245D01*
X106222534Y-111182514D01*
X106268996Y-111261118D01*
X106324996Y-111356538D01*
X106389081Y-111466250D01*
X106459796Y-111587734D01*
X106535687Y-111718468D01*
X106615299Y-111855930D01*
X106697178Y-111997598D01*
X106779870Y-112140951D01*
X106861921Y-112283467D01*
X106941876Y-112422624D01*
X107018281Y-112555901D01*
X107089682Y-112680776D01*
X107154624Y-112794727D01*
X107211653Y-112895233D01*
X107259315Y-112979772D01*
X107296155Y-113045822D01*
X107320720Y-113090862D01*
X107331554Y-113112370D01*
X107331951Y-113113714D01*
X107318501Y-113131965D01*
X107281114Y-113159882D01*
X107224235Y-113194725D01*
X107152312Y-113233754D01*
X107077015Y-113270843D01*
X106974560Y-113315817D01*
X106866817Y-113356226D01*
X106750073Y-113392969D01*
X106620618Y-113426942D01*
X106474740Y-113459044D01*
X106308726Y-113490173D01*
X106118866Y-113521227D01*
X105922469Y-113550145D01*
X105751834Y-113575800D01*
X105608545Y-113601198D01*
X105489008Y-113627602D01*
X105389630Y-113656273D01*
X105306818Y-113688473D01*
X105236978Y-113725465D01*
X105176518Y-113768512D01*
X105121845Y-113818875D01*
X105104214Y-113837583D01*
X105066000Y-113881139D01*
X105037732Y-113916682D01*
X105024618Y-113937583D01*
X105024268Y-113939297D01*
X105019680Y-113949806D01*
X105003758Y-113949924D01*
X104973266Y-113938254D01*
X104924968Y-113913396D01*
X104855627Y-113873952D01*
X104807439Y-113845587D01*
X104735583Y-113801247D01*
X104679742Y-113763279D01*
X104643667Y-113734416D01*
X104631113Y-113717388D01*
X104631121Y-113717264D01*
X104638906Y-113701037D01*
X104660892Y-113660400D01*
X104695803Y-113597567D01*
X104742363Y-113514752D01*
X104799295Y-113414172D01*
X104865323Y-113298040D01*
X104939172Y-113168571D01*
X105019564Y-113027980D01*
X105105224Y-112878482D01*
X105194876Y-112722292D01*
X105287243Y-112561624D01*
X105381049Y-112398693D01*
X105475018Y-112235713D01*
X105567874Y-112074900D01*
X105658340Y-111918468D01*
X105745141Y-111768633D01*
X105827000Y-111627608D01*
X105902641Y-111497609D01*
X105970787Y-111380849D01*
X106030163Y-111279545D01*
X106079493Y-111195911D01*
X106117500Y-111132162D01*
X106142907Y-111090511D01*
X106154440Y-111073175D01*
X106154923Y-111072805D01*
X106164043Y-111085835D01*
G37*
X106164043Y-111085835D02*
X106187065Y-111123245D01*
X106222534Y-111182514D01*
X106268996Y-111261118D01*
X106324996Y-111356538D01*
X106389081Y-111466250D01*
X106459796Y-111587734D01*
X106535687Y-111718468D01*
X106615299Y-111855930D01*
X106697178Y-111997598D01*
X106779870Y-112140951D01*
X106861921Y-112283467D01*
X106941876Y-112422624D01*
X107018281Y-112555901D01*
X107089682Y-112680776D01*
X107154624Y-112794727D01*
X107211653Y-112895233D01*
X107259315Y-112979772D01*
X107296155Y-113045822D01*
X107320720Y-113090862D01*
X107331554Y-113112370D01*
X107331951Y-113113714D01*
X107318501Y-113131965D01*
X107281114Y-113159882D01*
X107224235Y-113194725D01*
X107152312Y-113233754D01*
X107077015Y-113270843D01*
X106974560Y-113315817D01*
X106866817Y-113356226D01*
X106750073Y-113392969D01*
X106620618Y-113426942D01*
X106474740Y-113459044D01*
X106308726Y-113490173D01*
X106118866Y-113521227D01*
X105922469Y-113550145D01*
X105751834Y-113575800D01*
X105608545Y-113601198D01*
X105489008Y-113627602D01*
X105389630Y-113656273D01*
X105306818Y-113688473D01*
X105236978Y-113725465D01*
X105176518Y-113768512D01*
X105121845Y-113818875D01*
X105104214Y-113837583D01*
X105066000Y-113881139D01*
X105037732Y-113916682D01*
X105024618Y-113937583D01*
X105024268Y-113939297D01*
X105019680Y-113949806D01*
X105003758Y-113949924D01*
X104973266Y-113938254D01*
X104924968Y-113913396D01*
X104855627Y-113873952D01*
X104807439Y-113845587D01*
X104735583Y-113801247D01*
X104679742Y-113763279D01*
X104643667Y-113734416D01*
X104631113Y-113717388D01*
X104631121Y-113717264D01*
X104638906Y-113701037D01*
X104660892Y-113660400D01*
X104695803Y-113597567D01*
X104742363Y-113514752D01*
X104799295Y-113414172D01*
X104865323Y-113298040D01*
X104939172Y-113168571D01*
X105019564Y-113027980D01*
X105105224Y-112878482D01*
X105194876Y-112722292D01*
X105287243Y-112561624D01*
X105381049Y-112398693D01*
X105475018Y-112235713D01*
X105567874Y-112074900D01*
X105658340Y-111918468D01*
X105745141Y-111768633D01*
X105827000Y-111627608D01*
X105902641Y-111497609D01*
X105970787Y-111380849D01*
X106030163Y-111279545D01*
X106079493Y-111195911D01*
X106117500Y-111132162D01*
X106142907Y-111090511D01*
X106154440Y-111073175D01*
X106154923Y-111072805D01*
X106164043Y-111085835D01*
G36*
X104322094Y-114291158D02*
G01*
X104354619Y-114303736D01*
X104404193Y-114328712D01*
X104475374Y-114367876D01*
X104480916Y-114370988D01*
X104546474Y-114408476D01*
X104601798Y-114441319D01*
X104641455Y-114466205D01*
X104660012Y-114479820D01*
X104660531Y-114480487D01*
X104656048Y-114499390D01*
X104635486Y-114541605D01*
X104600183Y-114604832D01*
X104551480Y-114686772D01*
X104490718Y-114785122D01*
X104419236Y-114897585D01*
X104401445Y-114925165D01*
X104355093Y-115001699D01*
X104321342Y-115067556D01*
X104303153Y-115116782D01*
X104301286Y-115126507D01*
X104302115Y-115169312D01*
X104311394Y-115237209D01*
X104327968Y-115325843D01*
X104350680Y-115430859D01*
X104378373Y-115547902D01*
X104409890Y-115672616D01*
X104444075Y-115800645D01*
X104479771Y-115927634D01*
X104515821Y-116049228D01*
X104551068Y-116161072D01*
X104584356Y-116258810D01*
X104614528Y-116338087D01*
X104635561Y-116385122D01*
X104660337Y-116435225D01*
X104683730Y-116483168D01*
X104684997Y-116485793D01*
X104723699Y-116534220D01*
X104780184Y-116566828D01*
X104845939Y-116582454D01*
X104912451Y-116579937D01*
X104971205Y-116558114D01*
X105004258Y-116529382D01*
X105051859Y-116450583D01*
X105086739Y-116352378D01*
X105105877Y-116244779D01*
X105108588Y-116183780D01*
X105097670Y-116069935D01*
X105065624Y-115975660D01*
X105010726Y-115896379D01*
X104993607Y-115878733D01*
X104942661Y-115829235D01*
X104939163Y-115479362D01*
X104935664Y-115129489D01*
X105024818Y-114994531D01*
X105066654Y-114933445D01*
X105106945Y-114878493D01*
X105139943Y-114837336D01*
X105154126Y-114822192D01*
X105194281Y-114784810D01*
X105248665Y-114814098D01*
X105283039Y-114835084D01*
X105301846Y-114851378D01*
X105303049Y-114854307D01*
X105315903Y-114866728D01*
X105337896Y-114875977D01*
X105359150Y-114884313D01*
X105391694Y-114900149D01*
X105438322Y-114925033D01*
X105501829Y-114960509D01*
X105585008Y-115008123D01*
X105690653Y-115069422D01*
X105748062Y-115102932D01*
X105815594Y-115143071D01*
X105859885Y-115171659D01*
X105884855Y-115192039D01*
X105894423Y-115207553D01*
X105892508Y-115221546D01*
X105890911Y-115224796D01*
X105875376Y-115245266D01*
X105842136Y-115283665D01*
X105795062Y-115335696D01*
X105738028Y-115397066D01*
X105688700Y-115449090D01*
X105575030Y-115572567D01*
X105486105Y-115679591D01*
X105421134Y-115771240D01*
X105379321Y-115848588D01*
X105365217Y-115887866D01*
X105359392Y-115922249D01*
X105353375Y-115980899D01*
X105347696Y-116057117D01*
X105342884Y-116144202D01*
X105340619Y-116199268D01*
X105337459Y-116294464D01*
X105336069Y-116364062D01*
X105336858Y-116413409D01*
X105340235Y-116447854D01*
X105346608Y-116472743D01*
X105356387Y-116493425D01*
X105364067Y-116506053D01*
X105408421Y-116554726D01*
X105465574Y-116588645D01*
X105525708Y-116603438D01*
X105570773Y-116598086D01*
X105611576Y-116574930D01*
X105662724Y-116533462D01*
X105717042Y-116480912D01*
X105767357Y-116424516D01*
X105806494Y-116371505D01*
X105820905Y-116345889D01*
X105842491Y-116310814D01*
X105881753Y-116257389D01*
X105935102Y-116189789D01*
X105998952Y-116112190D01*
X106069715Y-116028768D01*
X106143804Y-115943698D01*
X106217632Y-115861155D01*
X106287611Y-115785316D01*
X106350155Y-115720356D01*
X106399260Y-115672669D01*
X106453779Y-115625032D01*
X106499642Y-115589908D01*
X106531811Y-115570949D01*
X106542489Y-115568864D01*
X106558853Y-115577274D01*
X106599671Y-115599846D01*
X106662586Y-115635224D01*
X106745244Y-115682054D01*
X106845289Y-115738981D01*
X106960366Y-115804649D01*
X107088119Y-115877703D01*
X107226194Y-115956788D01*
X107372234Y-116040548D01*
X107523884Y-116127629D01*
X107678790Y-116216676D01*
X107834595Y-116306332D01*
X107988944Y-116395243D01*
X108139482Y-116482054D01*
X108283854Y-116565409D01*
X108419704Y-116643954D01*
X108544677Y-116716333D01*
X108656417Y-116781190D01*
X108752570Y-116837171D01*
X108830779Y-116882920D01*
X108888689Y-116917083D01*
X108923946Y-116938304D01*
X108934165Y-116944963D01*
X108920402Y-116946280D01*
X108877104Y-116947559D01*
X108805714Y-116948796D01*
X108707673Y-116949983D01*
X108584422Y-116951115D01*
X108437403Y-116952186D01*
X108268057Y-116953189D01*
X108077826Y-116954119D01*
X107868151Y-116954968D01*
X107640473Y-116955732D01*
X107396235Y-116956403D01*
X107136877Y-116956976D01*
X106863841Y-116957444D01*
X106578568Y-116957802D01*
X106282500Y-116958042D01*
X105977079Y-116958159D01*
X105848924Y-116958171D01*
X102748970Y-116958171D01*
X102970053Y-116574847D01*
X103016856Y-116493680D01*
X103077102Y-116389166D01*
X103148778Y-116264801D01*
X103229869Y-116124082D01*
X103318362Y-115970503D01*
X103412240Y-115807562D01*
X103509491Y-115638754D01*
X103608100Y-115467575D01*
X103706053Y-115297521D01*
X103730825Y-115254512D01*
X103821152Y-115097857D01*
X103907289Y-114948803D01*
X103987942Y-114809568D01*
X104061816Y-114682371D01*
X104127617Y-114569432D01*
X104184050Y-114472968D01*
X104229821Y-114395200D01*
X104263635Y-114338346D01*
X104284198Y-114304625D01*
X104289953Y-114296040D01*
X104302058Y-114289189D01*
X104322094Y-114291158D01*
G37*
X104322094Y-114291158D02*
X104354619Y-114303736D01*
X104404193Y-114328712D01*
X104475374Y-114367876D01*
X104480916Y-114370988D01*
X104546474Y-114408476D01*
X104601798Y-114441319D01*
X104641455Y-114466205D01*
X104660012Y-114479820D01*
X104660531Y-114480487D01*
X104656048Y-114499390D01*
X104635486Y-114541605D01*
X104600183Y-114604832D01*
X104551480Y-114686772D01*
X104490718Y-114785122D01*
X104419236Y-114897585D01*
X104401445Y-114925165D01*
X104355093Y-115001699D01*
X104321342Y-115067556D01*
X104303153Y-115116782D01*
X104301286Y-115126507D01*
X104302115Y-115169312D01*
X104311394Y-115237209D01*
X104327968Y-115325843D01*
X104350680Y-115430859D01*
X104378373Y-115547902D01*
X104409890Y-115672616D01*
X104444075Y-115800645D01*
X104479771Y-115927634D01*
X104515821Y-116049228D01*
X104551068Y-116161072D01*
X104584356Y-116258810D01*
X104614528Y-116338087D01*
X104635561Y-116385122D01*
X104660337Y-116435225D01*
X104683730Y-116483168D01*
X104684997Y-116485793D01*
X104723699Y-116534220D01*
X104780184Y-116566828D01*
X104845939Y-116582454D01*
X104912451Y-116579937D01*
X104971205Y-116558114D01*
X105004258Y-116529382D01*
X105051859Y-116450583D01*
X105086739Y-116352378D01*
X105105877Y-116244779D01*
X105108588Y-116183780D01*
X105097670Y-116069935D01*
X105065624Y-115975660D01*
X105010726Y-115896379D01*
X104993607Y-115878733D01*
X104942661Y-115829235D01*
X104939163Y-115479362D01*
X104935664Y-115129489D01*
X105024818Y-114994531D01*
X105066654Y-114933445D01*
X105106945Y-114878493D01*
X105139943Y-114837336D01*
X105154126Y-114822192D01*
X105194281Y-114784810D01*
X105248665Y-114814098D01*
X105283039Y-114835084D01*
X105301846Y-114851378D01*
X105303049Y-114854307D01*
X105315903Y-114866728D01*
X105337896Y-114875977D01*
X105359150Y-114884313D01*
X105391694Y-114900149D01*
X105438322Y-114925033D01*
X105501829Y-114960509D01*
X105585008Y-115008123D01*
X105690653Y-115069422D01*
X105748062Y-115102932D01*
X105815594Y-115143071D01*
X105859885Y-115171659D01*
X105884855Y-115192039D01*
X105894423Y-115207553D01*
X105892508Y-115221546D01*
X105890911Y-115224796D01*
X105875376Y-115245266D01*
X105842136Y-115283665D01*
X105795062Y-115335696D01*
X105738028Y-115397066D01*
X105688700Y-115449090D01*
X105575030Y-115572567D01*
X105486105Y-115679591D01*
X105421134Y-115771240D01*
X105379321Y-115848588D01*
X105365217Y-115887866D01*
X105359392Y-115922249D01*
X105353375Y-115980899D01*
X105347696Y-116057117D01*
X105342884Y-116144202D01*
X105340619Y-116199268D01*
X105337459Y-116294464D01*
X105336069Y-116364062D01*
X105336858Y-116413409D01*
X105340235Y-116447854D01*
X105346608Y-116472743D01*
X105356387Y-116493425D01*
X105364067Y-116506053D01*
X105408421Y-116554726D01*
X105465574Y-116588645D01*
X105525708Y-116603438D01*
X105570773Y-116598086D01*
X105611576Y-116574930D01*
X105662724Y-116533462D01*
X105717042Y-116480912D01*
X105767357Y-116424516D01*
X105806494Y-116371505D01*
X105820905Y-116345889D01*
X105842491Y-116310814D01*
X105881753Y-116257389D01*
X105935102Y-116189789D01*
X105998952Y-116112190D01*
X106069715Y-116028768D01*
X106143804Y-115943698D01*
X106217632Y-115861155D01*
X106287611Y-115785316D01*
X106350155Y-115720356D01*
X106399260Y-115672669D01*
X106453779Y-115625032D01*
X106499642Y-115589908D01*
X106531811Y-115570949D01*
X106542489Y-115568864D01*
X106558853Y-115577274D01*
X106599671Y-115599846D01*
X106662586Y-115635224D01*
X106745244Y-115682054D01*
X106845289Y-115738981D01*
X106960366Y-115804649D01*
X107088119Y-115877703D01*
X107226194Y-115956788D01*
X107372234Y-116040548D01*
X107523884Y-116127629D01*
X107678790Y-116216676D01*
X107834595Y-116306332D01*
X107988944Y-116395243D01*
X108139482Y-116482054D01*
X108283854Y-116565409D01*
X108419704Y-116643954D01*
X108544677Y-116716333D01*
X108656417Y-116781190D01*
X108752570Y-116837171D01*
X108830779Y-116882920D01*
X108888689Y-116917083D01*
X108923946Y-116938304D01*
X108934165Y-116944963D01*
X108920402Y-116946280D01*
X108877104Y-116947559D01*
X108805714Y-116948796D01*
X108707673Y-116949983D01*
X108584422Y-116951115D01*
X108437403Y-116952186D01*
X108268057Y-116953189D01*
X108077826Y-116954119D01*
X107868151Y-116954968D01*
X107640473Y-116955732D01*
X107396235Y-116956403D01*
X107136877Y-116956976D01*
X106863841Y-116957444D01*
X106578568Y-116957802D01*
X106282500Y-116958042D01*
X105977079Y-116958159D01*
X105848924Y-116958171D01*
X102748970Y-116958171D01*
X102970053Y-116574847D01*
X103016856Y-116493680D01*
X103077102Y-116389166D01*
X103148778Y-116264801D01*
X103229869Y-116124082D01*
X103318362Y-115970503D01*
X103412240Y-115807562D01*
X103509491Y-115638754D01*
X103608100Y-115467575D01*
X103706053Y-115297521D01*
X103730825Y-115254512D01*
X103821152Y-115097857D01*
X103907289Y-114948803D01*
X103987942Y-114809568D01*
X104061816Y-114682371D01*
X104127617Y-114569432D01*
X104184050Y-114472968D01*
X104229821Y-114395200D01*
X104263635Y-114338346D01*
X104284198Y-114304625D01*
X104289953Y-114296040D01*
X104302058Y-114289189D01*
X104322094Y-114291158D01*
D11*
X94700000Y-103000000D02*
X93300000Y-103000000D01*
X93300000Y-101000000D02*
X94700000Y-101000000D01*
X92600000Y-102300000D02*
X92600000Y-101700000D01*
X95400000Y-101700000D02*
X95400000Y-102300000D01*
X94700000Y-103000000D02*
G75*
G03*
X95400000Y-102300000I1J699999D01*
G01*
X93300000Y-101000000D02*
G75*
G03*
X92600000Y-101700000I0J-700000D01*
G01*
X92600000Y-102300000D02*
G75*
G03*
X93300000Y-103000000I700000J0D01*
G01*
X95400000Y-101700000D02*
G75*
G03*
X94700000Y-101000000I-699999J1D01*
G01*
X94620000Y-94653641D02*
X94620000Y-94346359D01*
X95380000Y-94653641D02*
X95380000Y-94346359D01*
X84640000Y-107892164D02*
X84640000Y-108107836D01*
X85360000Y-107892164D02*
X85360000Y-108107836D01*
X97690000Y-106065000D02*
X97690000Y-107935000D01*
X97690000Y-107935000D02*
X101600000Y-107935000D01*
X101600000Y-106065000D02*
X97690000Y-106065000D01*
X92980000Y-91560000D02*
X91030000Y-91560000D01*
X92980000Y-86440000D02*
X89530000Y-86440000D01*
X92980000Y-86440000D02*
X94930000Y-86440000D01*
X92980000Y-91560000D02*
X94930000Y-91560000D01*
G36*
X107929571Y-104917071D02*
G01*
X107944483Y-104893429D01*
X107947801Y-104882480D01*
X107946544Y-104858586D01*
X107942726Y-104804501D01*
X107936593Y-104723338D01*
X107928393Y-104618210D01*
X107918373Y-104492228D01*
X107906780Y-104348505D01*
X107893860Y-104190154D01*
X107879862Y-104020287D01*
X107868581Y-103884528D01*
X107804750Y-103119106D01*
X107968996Y-103119106D01*
X107969703Y-103135624D01*
X107973031Y-103182145D01*
X107978710Y-103255378D01*
X107986474Y-103352028D01*
X107996057Y-103468805D01*
X108007189Y-103602414D01*
X108019605Y-103749563D01*
X108031520Y-103889271D01*
X108045016Y-104047787D01*
X108057587Y-104197421D01*
X108068945Y-104334602D01*
X108078802Y-104455759D01*
X108086870Y-104557320D01*
X108092860Y-104635712D01*
X108096485Y-104687363D01*
X108097491Y-104707423D01*
X108099060Y-104719908D01*
X108105278Y-104724862D01*
X108118541Y-104720218D01*
X108141247Y-104703909D01*
X108175792Y-104673868D01*
X108224573Y-104628027D01*
X108289987Y-104564320D01*
X108374431Y-104480679D01*
X108464029Y-104391299D01*
X108830426Y-104025186D01*
X108827859Y-104022434D01*
X109070049Y-104022434D01*
X109081087Y-104037550D01*
X109111987Y-104073142D01*
X109159653Y-104125941D01*
X109220987Y-104192673D01*
X109292893Y-104270070D01*
X109372273Y-104354858D01*
X109456031Y-104443767D01*
X109541070Y-104533526D01*
X109624292Y-104620864D01*
X109702601Y-104702509D01*
X109772900Y-104775191D01*
X109832091Y-104835637D01*
X109877078Y-104880578D01*
X109904764Y-104906742D01*
X109912314Y-104912072D01*
X109914803Y-104894867D01*
X109919970Y-104847348D01*
X109927530Y-104772489D01*
X109937200Y-104673264D01*
X109948695Y-104552649D01*
X109961731Y-104413618D01*
X109976024Y-104259145D01*
X109991290Y-104092206D01*
X110003479Y-103957597D01*
X110019071Y-103783054D01*
X110033477Y-103618627D01*
X110046453Y-103467299D01*
X110057759Y-103332053D01*
X110067152Y-103215870D01*
X110074389Y-103121735D01*
X110079228Y-103052630D01*
X110081427Y-103011538D01*
X110081176Y-103000868D01*
X110068030Y-103010372D01*
X110034554Y-103040920D01*
X109983674Y-103089556D01*
X109918317Y-103153323D01*
X109841409Y-103229265D01*
X109755876Y-103314424D01*
X109664646Y-103405845D01*
X109570644Y-103500569D01*
X109476798Y-103595641D01*
X109386033Y-103688103D01*
X109301277Y-103774999D01*
X109225456Y-103853372D01*
X109161497Y-103920265D01*
X109112326Y-103972722D01*
X109080869Y-104007785D01*
X109070049Y-104022434D01*
X108827859Y-104022434D01*
X108693798Y-103878760D01*
X108624216Y-103804448D01*
X108546119Y-103721483D01*
X108462594Y-103633102D01*
X108376730Y-103542541D01*
X108291615Y-103453036D01*
X108210336Y-103367823D01*
X108135981Y-103290139D01*
X108071637Y-103223220D01*
X108020394Y-103170303D01*
X107985337Y-103134623D01*
X107969556Y-103119416D01*
X107968996Y-103119106D01*
X107804750Y-103119106D01*
X107788796Y-102927807D01*
X106990714Y-102088485D01*
X106192632Y-101249164D01*
X106193219Y-101131852D01*
X106193806Y-101014539D01*
X106322725Y-101152253D01*
X106394876Y-101229063D01*
X106480060Y-101319304D01*
X106575979Y-101420575D01*
X106680334Y-101530476D01*
X106790826Y-101646604D01*
X106905156Y-101766558D01*
X107021025Y-101887936D01*
X107136135Y-102008338D01*
X107248186Y-102125362D01*
X107354881Y-102236606D01*
X107453920Y-102339669D01*
X107543003Y-102432150D01*
X107619834Y-102511647D01*
X107682112Y-102575758D01*
X107727538Y-102622083D01*
X107753815Y-102648219D01*
X107759574Y-102653233D01*
X107759970Y-102635791D01*
X107757792Y-102591135D01*
X107753417Y-102525340D01*
X107747225Y-102444483D01*
X107744567Y-102412183D01*
X107724772Y-102175921D01*
X107879758Y-102175921D01*
X107887760Y-102213520D01*
X107891840Y-102243255D01*
X107897575Y-102299203D01*
X107904299Y-102374236D01*
X107911352Y-102461225D01*
X107913793Y-102493421D01*
X107920992Y-102585861D01*
X107928258Y-102671707D01*
X107934864Y-102742847D01*
X107940084Y-102791169D01*
X107941261Y-102799939D01*
X107945702Y-102817942D01*
X107955313Y-102839017D01*
X107972140Y-102865525D01*
X107998225Y-102899828D01*
X108035613Y-102944289D01*
X108086346Y-103001271D01*
X108152470Y-103073136D01*
X108236026Y-103162246D01*
X108339060Y-103270964D01*
X108444167Y-103381275D01*
X108548738Y-103490441D01*
X108646351Y-103591540D01*
X108734578Y-103682115D01*
X108810988Y-103759708D01*
X108873151Y-103821862D01*
X108918637Y-103866118D01*
X108945017Y-103890018D01*
X108950643Y-103893574D01*
X108965443Y-103880681D01*
X109000039Y-103847060D01*
X109051071Y-103796082D01*
X109115183Y-103731120D01*
X109189016Y-103655548D01*
X109242411Y-103600493D01*
X109521173Y-103312237D01*
X108699210Y-103312237D01*
X108699210Y-102994737D01*
X109701842Y-102994737D01*
X109701842Y-103136206D01*
X109885658Y-102952960D01*
X110016052Y-102822971D01*
X110270000Y-102822971D01*
X110272429Y-102843477D01*
X110284724Y-102854902D01*
X110314396Y-102859880D01*
X110368955Y-102861044D01*
X110378618Y-102861052D01*
X110487237Y-102861052D01*
X110487237Y-102569584D01*
X110378618Y-102677237D01*
X110317346Y-102742687D01*
X110280699Y-102792829D01*
X110270000Y-102822971D01*
X110016052Y-102822971D01*
X110069474Y-102769715D01*
X110069474Y-102606502D01*
X110069985Y-102531414D01*
X110072328Y-102483645D01*
X110077711Y-102457098D01*
X110087344Y-102445679D01*
X110101871Y-102443289D01*
X110118027Y-102439780D01*
X110129969Y-102425711D01*
X110139139Y-102395769D01*
X110146982Y-102344642D01*
X110154942Y-102267017D01*
X110157496Y-102238585D01*
X110163026Y-102175921D01*
X107879758Y-102175921D01*
X107724772Y-102175921D01*
X107512763Y-102175921D01*
X107512763Y-102025526D01*
X107602859Y-102025526D01*
X107655555Y-102024083D01*
X107684188Y-102017116D01*
X107687691Y-102012970D01*
X107872234Y-102012970D01*
X107881946Y-102022442D01*
X107915588Y-102025366D01*
X107938294Y-102025526D01*
X108014079Y-102025526D01*
X108296694Y-102025526D01*
X110176519Y-102025526D01*
X110112938Y-101960413D01*
X110014186Y-101880062D01*
X109891968Y-101818089D01*
X109744213Y-101773646D01*
X109597401Y-101749065D01*
X109501316Y-101737596D01*
X109501316Y-101858421D01*
X108732632Y-101858421D01*
X108732632Y-101724737D01*
X108866316Y-101724737D01*
X109367632Y-101724737D01*
X109367632Y-101641184D01*
X108866316Y-101641184D01*
X108866316Y-101724737D01*
X108732632Y-101724737D01*
X108732632Y-101721345D01*
X108619835Y-101732776D01*
X108541025Y-101742425D01*
X108457057Y-101755214D01*
X108406776Y-101764348D01*
X108306513Y-101784488D01*
X108301603Y-101905007D01*
X108296694Y-102025526D01*
X108014079Y-102025526D01*
X108014079Y-101958684D01*
X108011869Y-101916810D01*
X108006350Y-101893536D01*
X108004126Y-101891842D01*
X107979387Y-101902560D01*
X107943243Y-101928563D01*
X107907010Y-101960623D01*
X107882001Y-101989511D01*
X107879773Y-101993267D01*
X107872234Y-102012970D01*
X107687691Y-102012970D01*
X107698081Y-102000674D01*
X107703689Y-101982762D01*
X107726578Y-101936279D01*
X107770540Y-101880400D01*
X107828011Y-101822960D01*
X107891427Y-101771793D01*
X107933082Y-101745143D01*
X107980534Y-101715972D01*
X108004859Y-101691467D01*
X108013405Y-101662572D01*
X108014062Y-101645362D01*
X108014063Y-101641184D01*
X108014079Y-101591052D01*
X108154726Y-101591052D01*
X108219436Y-101592617D01*
X108269870Y-101596785D01*
X108297906Y-101602773D01*
X108300943Y-101605197D01*
X108318727Y-101608918D01*
X108362008Y-101607394D01*
X108423349Y-101601075D01*
X108465263Y-101595240D01*
X108541263Y-101583778D01*
X108610770Y-101573430D01*
X108663003Y-101565796D01*
X108678322Y-101563627D01*
X108718347Y-101551232D01*
X108732632Y-101531808D01*
X108736975Y-101523898D01*
X108752510Y-101517863D01*
X108782999Y-101513466D01*
X108832200Y-101510469D01*
X108903874Y-101508635D01*
X109001781Y-101507725D01*
X109116974Y-101507500D01*
X109239914Y-101507628D01*
X109333441Y-101508230D01*
X109401560Y-101509639D01*
X109448281Y-101512181D01*
X109477609Y-101516189D01*
X109493551Y-101521991D01*
X109500115Y-101529917D01*
X109501316Y-101539133D01*
X109511540Y-101568385D01*
X109545030Y-101585031D01*
X109606012Y-101590968D01*
X109616983Y-101591052D01*
X109720254Y-101601706D01*
X109837547Y-101631033D01*
X109958285Y-101675084D01*
X110071889Y-101729911D01*
X110167781Y-101791564D01*
X110180201Y-101801332D01*
X110220682Y-101833115D01*
X110244655Y-101845844D01*
X110261396Y-101841729D01*
X110278581Y-101824750D01*
X110329336Y-101791492D01*
X110395393Y-101778725D01*
X110466526Y-101785365D01*
X110532514Y-101810327D01*
X110583132Y-101852529D01*
X110586797Y-101857434D01*
X110624672Y-101936211D01*
X110631719Y-102017754D01*
X110608715Y-102095487D01*
X110556437Y-102162835D01*
X110550044Y-102168396D01*
X110512927Y-102194813D01*
X110475267Y-102206447D01*
X110422324Y-102207287D01*
X110409098Y-102206542D01*
X110357297Y-102204641D01*
X110330614Y-102208996D01*
X110320955Y-102222138D01*
X110319963Y-102234408D01*
X110317939Y-102270002D01*
X110312914Y-102323533D01*
X110309303Y-102355559D01*
X110304066Y-102406427D01*
X110306244Y-102432468D01*
X110318875Y-102441986D01*
X110341375Y-102443289D01*
X110354718Y-102438986D01*
X110376244Y-102425057D01*
X110407548Y-102399977D01*
X110450224Y-102362219D01*
X110505868Y-102310256D01*
X110576075Y-102242562D01*
X110662440Y-102157611D01*
X110766558Y-102053875D01*
X110890025Y-101929828D01*
X111034436Y-101783944D01*
X111104031Y-101713449D01*
X111824079Y-100983610D01*
X111823256Y-101099337D01*
X111822433Y-101215066D01*
X111222115Y-101825000D01*
X110621796Y-102434934D01*
X110621359Y-102714835D01*
X110620921Y-102994737D01*
X110255337Y-102994737D01*
X110245917Y-103065756D01*
X110242350Y-103098127D01*
X110236338Y-103159087D01*
X110228201Y-103244998D01*
X110218262Y-103352226D01*
X110206843Y-103477133D01*
X110194264Y-103616083D01*
X110180847Y-103765441D01*
X110166915Y-103921568D01*
X110152788Y-104080830D01*
X110138788Y-104239590D01*
X110125237Y-104394211D01*
X110112456Y-104541057D01*
X110100767Y-104676493D01*
X110090492Y-104796880D01*
X110081952Y-104898584D01*
X110075469Y-104977967D01*
X110071364Y-105031394D01*
X110069959Y-105055229D01*
X110069960Y-105055342D01*
X110080204Y-105074466D01*
X110110974Y-105113955D01*
X110162689Y-105174266D01*
X110235767Y-105255861D01*
X110330627Y-105359198D01*
X110447687Y-105484738D01*
X110587367Y-105632940D01*
X110750084Y-105804263D01*
X110795821Y-105852237D01*
X111521195Y-106612566D01*
X111462551Y-106671052D01*
X111403908Y-106729539D01*
X111309026Y-106626310D01*
X111274315Y-106589003D01*
X111220094Y-106531311D01*
X111149941Y-106457013D01*
X111067432Y-106369889D01*
X110976145Y-106273718D01*
X110879658Y-106172280D01*
X110821935Y-106111695D01*
X110713566Y-105998197D01*
X110625972Y-105907285D01*
X110556920Y-105837307D01*
X110504176Y-105786610D01*
X110465506Y-105753540D01*
X110438677Y-105736444D01*
X110421456Y-105733669D01*
X110411608Y-105743563D01*
X110406901Y-105764471D01*
X110405101Y-105794741D01*
X110404859Y-105803002D01*
X110392342Y-105859909D01*
X110361503Y-105928693D01*
X110318497Y-105998475D01*
X110269480Y-106058378D01*
X110249866Y-106076882D01*
X110149230Y-106141628D01*
X110031673Y-106177854D01*
X109927738Y-106186447D01*
X109809951Y-106170239D01*
X109701169Y-106122712D01*
X109604890Y-106045511D01*
X109587125Y-106026295D01*
X109522168Y-105952500D01*
X108398421Y-105952500D01*
X108398421Y-106186447D01*
X108097632Y-106186447D01*
X108097632Y-106077152D01*
X108093857Y-106002539D01*
X108081175Y-105950750D01*
X108065763Y-105922580D01*
X108054750Y-105902424D01*
X108045321Y-105873200D01*
X108036849Y-105830575D01*
X108028710Y-105770217D01*
X108020279Y-105687793D01*
X108010932Y-105578972D01*
X108004531Y-105498017D01*
X107975169Y-105118732D01*
X107254341Y-105848938D01*
X107124008Y-105981066D01*
X106998892Y-106108096D01*
X106881279Y-106227695D01*
X106773455Y-106337528D01*
X106677705Y-106435263D01*
X106596317Y-106518566D01*
X106531577Y-106585104D01*
X106485770Y-106632542D01*
X106461208Y-106658520D01*
X106420855Y-106699649D01*
X106387195Y-106728335D01*
X106369090Y-106737895D01*
X106345965Y-106726697D01*
X106312257Y-106698719D01*
X106300831Y-106687326D01*
X106252383Y-106636757D01*
X106519119Y-106365702D01*
X106587169Y-106296652D01*
X106674915Y-106207774D01*
X106778508Y-106102959D01*
X106894100Y-105986097D01*
X107017841Y-105861079D01*
X107145881Y-105731795D01*
X107274372Y-105602136D01*
X107366546Y-105509179D01*
X107506658Y-105367520D01*
X107624368Y-105247591D01*
X107721180Y-105147768D01*
X107798601Y-105066428D01*
X107858136Y-105001948D01*
X107887642Y-104968277D01*
X108124591Y-104968277D01*
X108154257Y-105347592D01*
X108163203Y-105458777D01*
X108171858Y-105560453D01*
X108179729Y-105647304D01*
X108186328Y-105714018D01*
X108191164Y-105755279D01*
X108192720Y-105764506D01*
X108201518Y-105802105D01*
X109463319Y-105802105D01*
X109471742Y-105697173D01*
X109497172Y-105573195D01*
X109550389Y-105463524D01*
X109628037Y-105372156D01*
X109726763Y-105303083D01*
X109837572Y-105261620D01*
X109873520Y-105242171D01*
X109891517Y-105200430D01*
X109891894Y-105198589D01*
X109894053Y-105180967D01*
X109891384Y-105162922D01*
X109881280Y-105141108D01*
X109861137Y-105112177D01*
X109828349Y-105072783D01*
X109780310Y-105019577D01*
X109714416Y-104949214D01*
X109628060Y-104858346D01*
X109622480Y-104852493D01*
X109529595Y-104754956D01*
X109430845Y-104651067D01*
X109333016Y-104547977D01*
X109242893Y-104452839D01*
X109167262Y-104372804D01*
X109150395Y-104354911D01*
X109085735Y-104287444D01*
X109028295Y-104229709D01*
X108982199Y-104185675D01*
X108951569Y-104159314D01*
X108941285Y-104153521D01*
X108925948Y-104165646D01*
X108890083Y-104198910D01*
X108836512Y-104250542D01*
X108768060Y-104317775D01*
X108687553Y-104397837D01*
X108597813Y-104487961D01*
X108524468Y-104562198D01*
X108124591Y-104968277D01*
X107887642Y-104968277D01*
X107901291Y-104952703D01*
X107929571Y-104917071D01*
G37*
D12*
X107929571Y-104917071D02*
X107944483Y-104893429D01*
X107947801Y-104882480D01*
X107946544Y-104858586D01*
X107942726Y-104804501D01*
X107936593Y-104723338D01*
X107928393Y-104618210D01*
X107918373Y-104492228D01*
X107906780Y-104348505D01*
X107893860Y-104190154D01*
X107879862Y-104020287D01*
X107868581Y-103884528D01*
X107804750Y-103119106D01*
X107968996Y-103119106D01*
X107969703Y-103135624D01*
X107973031Y-103182145D01*
X107978710Y-103255378D01*
X107986474Y-103352028D01*
X107996057Y-103468805D01*
X108007189Y-103602414D01*
X108019605Y-103749563D01*
X108031520Y-103889271D01*
X108045016Y-104047787D01*
X108057587Y-104197421D01*
X108068945Y-104334602D01*
X108078802Y-104455759D01*
X108086870Y-104557320D01*
X108092860Y-104635712D01*
X108096485Y-104687363D01*
X108097491Y-104707423D01*
X108099060Y-104719908D01*
X108105278Y-104724862D01*
X108118541Y-104720218D01*
X108141247Y-104703909D01*
X108175792Y-104673868D01*
X108224573Y-104628027D01*
X108289987Y-104564320D01*
X108374431Y-104480679D01*
X108464029Y-104391299D01*
X108830426Y-104025186D01*
X108827859Y-104022434D01*
X109070049Y-104022434D01*
X109081087Y-104037550D01*
X109111987Y-104073142D01*
X109159653Y-104125941D01*
X109220987Y-104192673D01*
X109292893Y-104270070D01*
X109372273Y-104354858D01*
X109456031Y-104443767D01*
X109541070Y-104533526D01*
X109624292Y-104620864D01*
X109702601Y-104702509D01*
X109772900Y-104775191D01*
X109832091Y-104835637D01*
X109877078Y-104880578D01*
X109904764Y-104906742D01*
X109912314Y-104912072D01*
X109914803Y-104894867D01*
X109919970Y-104847348D01*
X109927530Y-104772489D01*
X109937200Y-104673264D01*
X109948695Y-104552649D01*
X109961731Y-104413618D01*
X109976024Y-104259145D01*
X109991290Y-104092206D01*
X110003479Y-103957597D01*
X110019071Y-103783054D01*
X110033477Y-103618627D01*
X110046453Y-103467299D01*
X110057759Y-103332053D01*
X110067152Y-103215870D01*
X110074389Y-103121735D01*
X110079228Y-103052630D01*
X110081427Y-103011538D01*
X110081176Y-103000868D01*
X110068030Y-103010372D01*
X110034554Y-103040920D01*
X109983674Y-103089556D01*
X109918317Y-103153323D01*
X109841409Y-103229265D01*
X109755876Y-103314424D01*
X109664646Y-103405845D01*
X109570644Y-103500569D01*
X109476798Y-103595641D01*
X109386033Y-103688103D01*
X109301277Y-103774999D01*
X109225456Y-103853372D01*
X109161497Y-103920265D01*
X109112326Y-103972722D01*
X109080869Y-104007785D01*
X109070049Y-104022434D01*
X108827859Y-104022434D01*
X108693798Y-103878760D01*
X108624216Y-103804448D01*
X108546119Y-103721483D01*
X108462594Y-103633102D01*
X108376730Y-103542541D01*
X108291615Y-103453036D01*
X108210336Y-103367823D01*
X108135981Y-103290139D01*
X108071637Y-103223220D01*
X108020394Y-103170303D01*
X107985337Y-103134623D01*
X107969556Y-103119416D01*
X107968996Y-103119106D01*
X107804750Y-103119106D01*
X107788796Y-102927807D01*
X106990714Y-102088485D01*
X106192632Y-101249164D01*
X106193219Y-101131852D01*
X106193806Y-101014539D01*
X106322725Y-101152253D01*
X106394876Y-101229063D01*
X106480060Y-101319304D01*
X106575979Y-101420575D01*
X106680334Y-101530476D01*
X106790826Y-101646604D01*
X106905156Y-101766558D01*
X107021025Y-101887936D01*
X107136135Y-102008338D01*
X107248186Y-102125362D01*
X107354881Y-102236606D01*
X107453920Y-102339669D01*
X107543003Y-102432150D01*
X107619834Y-102511647D01*
X107682112Y-102575758D01*
X107727538Y-102622083D01*
X107753815Y-102648219D01*
X107759574Y-102653233D01*
X107759970Y-102635791D01*
X107757792Y-102591135D01*
X107753417Y-102525340D01*
X107747225Y-102444483D01*
X107744567Y-102412183D01*
X107724772Y-102175921D01*
X107879758Y-102175921D01*
X107887760Y-102213520D01*
X107891840Y-102243255D01*
X107897575Y-102299203D01*
X107904299Y-102374236D01*
X107911352Y-102461225D01*
X107913793Y-102493421D01*
X107920992Y-102585861D01*
X107928258Y-102671707D01*
X107934864Y-102742847D01*
X107940084Y-102791169D01*
X107941261Y-102799939D01*
X107945702Y-102817942D01*
X107955313Y-102839017D01*
X107972140Y-102865525D01*
X107998225Y-102899828D01*
X108035613Y-102944289D01*
X108086346Y-103001271D01*
X108152470Y-103073136D01*
X108236026Y-103162246D01*
X108339060Y-103270964D01*
X108444167Y-103381275D01*
X108548738Y-103490441D01*
X108646351Y-103591540D01*
X108734578Y-103682115D01*
X108810988Y-103759708D01*
X108873151Y-103821862D01*
X108918637Y-103866118D01*
X108945017Y-103890018D01*
X108950643Y-103893574D01*
X108965443Y-103880681D01*
X109000039Y-103847060D01*
X109051071Y-103796082D01*
X109115183Y-103731120D01*
X109189016Y-103655548D01*
X109242411Y-103600493D01*
X109521173Y-103312237D01*
X108699210Y-103312237D01*
X108699210Y-102994737D01*
X109701842Y-102994737D01*
X109701842Y-103136206D01*
X109885658Y-102952960D01*
X110016052Y-102822971D01*
X110270000Y-102822971D01*
X110272429Y-102843477D01*
X110284724Y-102854902D01*
X110314396Y-102859880D01*
X110368955Y-102861044D01*
X110378618Y-102861052D01*
X110487237Y-102861052D01*
X110487237Y-102569584D01*
X110378618Y-102677237D01*
X110317346Y-102742687D01*
X110280699Y-102792829D01*
X110270000Y-102822971D01*
X110016052Y-102822971D01*
X110069474Y-102769715D01*
X110069474Y-102606502D01*
X110069985Y-102531414D01*
X110072328Y-102483645D01*
X110077711Y-102457098D01*
X110087344Y-102445679D01*
X110101871Y-102443289D01*
X110118027Y-102439780D01*
X110129969Y-102425711D01*
X110139139Y-102395769D01*
X110146982Y-102344642D01*
X110154942Y-102267017D01*
X110157496Y-102238585D01*
X110163026Y-102175921D01*
X107879758Y-102175921D01*
X107724772Y-102175921D01*
X107512763Y-102175921D01*
X107512763Y-102025526D01*
X107602859Y-102025526D01*
X107655555Y-102024083D01*
X107684188Y-102017116D01*
X107687691Y-102012970D01*
X107872234Y-102012970D01*
X107881946Y-102022442D01*
X107915588Y-102025366D01*
X107938294Y-102025526D01*
X108014079Y-102025526D01*
X108296694Y-102025526D01*
X110176519Y-102025526D01*
X110112938Y-101960413D01*
X110014186Y-101880062D01*
X109891968Y-101818089D01*
X109744213Y-101773646D01*
X109597401Y-101749065D01*
X109501316Y-101737596D01*
X109501316Y-101858421D01*
X108732632Y-101858421D01*
X108732632Y-101724737D01*
X108866316Y-101724737D01*
X109367632Y-101724737D01*
X109367632Y-101641184D01*
X108866316Y-101641184D01*
X108866316Y-101724737D01*
X108732632Y-101724737D01*
X108732632Y-101721345D01*
X108619835Y-101732776D01*
X108541025Y-101742425D01*
X108457057Y-101755214D01*
X108406776Y-101764348D01*
X108306513Y-101784488D01*
X108301603Y-101905007D01*
X108296694Y-102025526D01*
X108014079Y-102025526D01*
X108014079Y-101958684D01*
X108011869Y-101916810D01*
X108006350Y-101893536D01*
X108004126Y-101891842D01*
X107979387Y-101902560D01*
X107943243Y-101928563D01*
X107907010Y-101960623D01*
X107882001Y-101989511D01*
X107879773Y-101993267D01*
X107872234Y-102012970D01*
X107687691Y-102012970D01*
X107698081Y-102000674D01*
X107703689Y-101982762D01*
X107726578Y-101936279D01*
X107770540Y-101880400D01*
X107828011Y-101822960D01*
X107891427Y-101771793D01*
X107933082Y-101745143D01*
X107980534Y-101715972D01*
X108004859Y-101691467D01*
X108013405Y-101662572D01*
X108014062Y-101645362D01*
X108014063Y-101641184D01*
X108014079Y-101591052D01*
X108154726Y-101591052D01*
X108219436Y-101592617D01*
X108269870Y-101596785D01*
X108297906Y-101602773D01*
X108300943Y-101605197D01*
X108318727Y-101608918D01*
X108362008Y-101607394D01*
X108423349Y-101601075D01*
X108465263Y-101595240D01*
X108541263Y-101583778D01*
X108610770Y-101573430D01*
X108663003Y-101565796D01*
X108678322Y-101563627D01*
X108718347Y-101551232D01*
X108732632Y-101531808D01*
X108736975Y-101523898D01*
X108752510Y-101517863D01*
X108782999Y-101513466D01*
X108832200Y-101510469D01*
X108903874Y-101508635D01*
X109001781Y-101507725D01*
X109116974Y-101507500D01*
X109239914Y-101507628D01*
X109333441Y-101508230D01*
X109401560Y-101509639D01*
X109448281Y-101512181D01*
X109477609Y-101516189D01*
X109493551Y-101521991D01*
X109500115Y-101529917D01*
X109501316Y-101539133D01*
X109511540Y-101568385D01*
X109545030Y-101585031D01*
X109606012Y-101590968D01*
X109616983Y-101591052D01*
X109720254Y-101601706D01*
X109837547Y-101631033D01*
X109958285Y-101675084D01*
X110071889Y-101729911D01*
X110167781Y-101791564D01*
X110180201Y-101801332D01*
X110220682Y-101833115D01*
X110244655Y-101845844D01*
X110261396Y-101841729D01*
X110278581Y-101824750D01*
X110329336Y-101791492D01*
X110395393Y-101778725D01*
X110466526Y-101785365D01*
X110532514Y-101810327D01*
X110583132Y-101852529D01*
X110586797Y-101857434D01*
X110624672Y-101936211D01*
X110631719Y-102017754D01*
X110608715Y-102095487D01*
X110556437Y-102162835D01*
X110550044Y-102168396D01*
X110512927Y-102194813D01*
X110475267Y-102206447D01*
X110422324Y-102207287D01*
X110409098Y-102206542D01*
X110357297Y-102204641D01*
X110330614Y-102208996D01*
X110320955Y-102222138D01*
X110319963Y-102234408D01*
X110317939Y-102270002D01*
X110312914Y-102323533D01*
X110309303Y-102355559D01*
X110304066Y-102406427D01*
X110306244Y-102432468D01*
X110318875Y-102441986D01*
X110341375Y-102443289D01*
X110354718Y-102438986D01*
X110376244Y-102425057D01*
X110407548Y-102399977D01*
X110450224Y-102362219D01*
X110505868Y-102310256D01*
X110576075Y-102242562D01*
X110662440Y-102157611D01*
X110766558Y-102053875D01*
X110890025Y-101929828D01*
X111034436Y-101783944D01*
X111104031Y-101713449D01*
X111824079Y-100983610D01*
X111823256Y-101099337D01*
X111822433Y-101215066D01*
X111222115Y-101825000D01*
X110621796Y-102434934D01*
X110621359Y-102714835D01*
X110620921Y-102994737D01*
X110255337Y-102994737D01*
X110245917Y-103065756D01*
X110242350Y-103098127D01*
X110236338Y-103159087D01*
X110228201Y-103244998D01*
X110218262Y-103352226D01*
X110206843Y-103477133D01*
X110194264Y-103616083D01*
X110180847Y-103765441D01*
X110166915Y-103921568D01*
X110152788Y-104080830D01*
X110138788Y-104239590D01*
X110125237Y-104394211D01*
X110112456Y-104541057D01*
X110100767Y-104676493D01*
X110090492Y-104796880D01*
X110081952Y-104898584D01*
X110075469Y-104977967D01*
X110071364Y-105031394D01*
X110069959Y-105055229D01*
X110069960Y-105055342D01*
X110080204Y-105074466D01*
X110110974Y-105113955D01*
X110162689Y-105174266D01*
X110235767Y-105255861D01*
X110330627Y-105359198D01*
X110447687Y-105484738D01*
X110587367Y-105632940D01*
X110750084Y-105804263D01*
X110795821Y-105852237D01*
X111521195Y-106612566D01*
X111462551Y-106671052D01*
X111403908Y-106729539D01*
X111309026Y-106626310D01*
X111274315Y-106589003D01*
X111220094Y-106531311D01*
X111149941Y-106457013D01*
X111067432Y-106369889D01*
X110976145Y-106273718D01*
X110879658Y-106172280D01*
X110821935Y-106111695D01*
X110713566Y-105998197D01*
X110625972Y-105907285D01*
X110556920Y-105837307D01*
X110504176Y-105786610D01*
X110465506Y-105753540D01*
X110438677Y-105736444D01*
X110421456Y-105733669D01*
X110411608Y-105743563D01*
X110406901Y-105764471D01*
X110405101Y-105794741D01*
X110404859Y-105803002D01*
X110392342Y-105859909D01*
X110361503Y-105928693D01*
X110318497Y-105998475D01*
X110269480Y-106058378D01*
X110249866Y-106076882D01*
X110149230Y-106141628D01*
X110031673Y-106177854D01*
X109927738Y-106186447D01*
X109809951Y-106170239D01*
X109701169Y-106122712D01*
X109604890Y-106045511D01*
X109587125Y-106026295D01*
X109522168Y-105952500D01*
X108398421Y-105952500D01*
X108398421Y-106186447D01*
X108097632Y-106186447D01*
X108097632Y-106077152D01*
X108093857Y-106002539D01*
X108081175Y-105950750D01*
X108065763Y-105922580D01*
X108054750Y-105902424D01*
X108045321Y-105873200D01*
X108036849Y-105830575D01*
X108028710Y-105770217D01*
X108020279Y-105687793D01*
X108010932Y-105578972D01*
X108004531Y-105498017D01*
X107975169Y-105118732D01*
X107254341Y-105848938D01*
X107124008Y-105981066D01*
X106998892Y-106108096D01*
X106881279Y-106227695D01*
X106773455Y-106337528D01*
X106677705Y-106435263D01*
X106596317Y-106518566D01*
X106531577Y-106585104D01*
X106485770Y-106632542D01*
X106461208Y-106658520D01*
X106420855Y-106699649D01*
X106387195Y-106728335D01*
X106369090Y-106737895D01*
X106345965Y-106726697D01*
X106312257Y-106698719D01*
X106300831Y-106687326D01*
X106252383Y-106636757D01*
X106519119Y-106365702D01*
X106587169Y-106296652D01*
X106674915Y-106207774D01*
X106778508Y-106102959D01*
X106894100Y-105986097D01*
X107017841Y-105861079D01*
X107145881Y-105731795D01*
X107274372Y-105602136D01*
X107366546Y-105509179D01*
X107506658Y-105367520D01*
X107624368Y-105247591D01*
X107721180Y-105147768D01*
X107798601Y-105066428D01*
X107858136Y-105001948D01*
X107887642Y-104968277D01*
X108124591Y-104968277D01*
X108154257Y-105347592D01*
X108163203Y-105458777D01*
X108171858Y-105560453D01*
X108179729Y-105647304D01*
X108186328Y-105714018D01*
X108191164Y-105755279D01*
X108192720Y-105764506D01*
X108201518Y-105802105D01*
X109463319Y-105802105D01*
X109471742Y-105697173D01*
X109497172Y-105573195D01*
X109550389Y-105463524D01*
X109628037Y-105372156D01*
X109726763Y-105303083D01*
X109837572Y-105261620D01*
X109873520Y-105242171D01*
X109891517Y-105200430D01*
X109891894Y-105198589D01*
X109894053Y-105180967D01*
X109891384Y-105162922D01*
X109881280Y-105141108D01*
X109861137Y-105112177D01*
X109828349Y-105072783D01*
X109780310Y-105019577D01*
X109714416Y-104949214D01*
X109628060Y-104858346D01*
X109622480Y-104852493D01*
X109529595Y-104754956D01*
X109430845Y-104651067D01*
X109333016Y-104547977D01*
X109242893Y-104452839D01*
X109167262Y-104372804D01*
X109150395Y-104354911D01*
X109085735Y-104287444D01*
X109028295Y-104229709D01*
X108982199Y-104185675D01*
X108951569Y-104159314D01*
X108941285Y-104153521D01*
X108925948Y-104165646D01*
X108890083Y-104198910D01*
X108836512Y-104250542D01*
X108768060Y-104317775D01*
X108687553Y-104397837D01*
X108597813Y-104487961D01*
X108524468Y-104562198D01*
X108124591Y-104968277D01*
X107887642Y-104968277D01*
X107901291Y-104952703D01*
X107929571Y-104917071D01*
G36*
X111322763Y-109010526D02*
G01*
X106643816Y-109010526D01*
X106643816Y-107857500D01*
X111322763Y-107857500D01*
X111322763Y-109010526D01*
G37*
X111322763Y-109010526D02*
X106643816Y-109010526D01*
X106643816Y-107857500D01*
X111322763Y-107857500D01*
X111322763Y-109010526D01*
D11*
X99143641Y-104120000D02*
X98836359Y-104120000D01*
X99143641Y-104880000D02*
X98836359Y-104880000D01*
X81350000Y-82250000D02*
X88650000Y-82250000D01*
X88650000Y-87750000D02*
X88650000Y-86600000D01*
X81350000Y-87750000D02*
X88650000Y-87750000D01*
X116370000Y-93570000D02*
X116370000Y-94205000D01*
X116370000Y-94205000D02*
X115735000Y-94205000D01*
M02*
