G04 #@! TF.GenerationSoftware,KiCad,Pcbnew,6.0.5+dfsg-1~bpo11+1*
G04 #@! TF.CreationDate,2022-08-22T22:11:56+00:00*
G04 #@! TF.ProjectId,LEDcube,4c454463-7562-4652-9e6b-696361645f70,rev?*
G04 #@! TF.SameCoordinates,Original*
G04 #@! TF.FileFunction,Legend,Bot*
G04 #@! TF.FilePolarity,Positive*
%FSLAX46Y46*%
G04 Gerber Fmt 4.6, Leading zero omitted, Abs format (unit mm)*
G04 Created by KiCad (PCBNEW 6.0.5+dfsg-1~bpo11+1) date 2022-08-22 22:11:56*
%MOMM*%
%LPD*%
G01*
G04 APERTURE LIST*
%ADD10C,0.150000*%
%ADD11C,0.120000*%
G04 APERTURE END LIST*
D10*
X106285714Y-80322380D02*
X106285714Y-81036666D01*
X106333333Y-81179523D01*
X106428571Y-81274761D01*
X106571428Y-81322380D01*
X106666666Y-81322380D01*
X105285714Y-81322380D02*
X105857142Y-81322380D01*
X105571428Y-81322380D02*
X105571428Y-80322380D01*
X105666666Y-80465238D01*
X105761904Y-80560476D01*
X105857142Y-80608095D01*
X104666666Y-80322380D02*
X104571428Y-80322380D01*
X104476190Y-80370000D01*
X104428571Y-80417619D01*
X104380952Y-80512857D01*
X104333333Y-80703333D01*
X104333333Y-80941428D01*
X104380952Y-81131904D01*
X104428571Y-81227142D01*
X104476190Y-81274761D01*
X104571428Y-81322380D01*
X104666666Y-81322380D01*
X104761904Y-81274761D01*
X104809523Y-81227142D01*
X104857142Y-81131904D01*
X104904761Y-80941428D01*
X104904761Y-80703333D01*
X104857142Y-80512857D01*
X104809523Y-80417619D01*
X104761904Y-80370000D01*
X104666666Y-80322380D01*
X103380952Y-81322380D02*
X103952380Y-81322380D01*
X103666666Y-81322380D02*
X103666666Y-80322380D01*
X103761904Y-80465238D01*
X103857142Y-80560476D01*
X103952380Y-80608095D01*
X110285714Y-80322380D02*
X110285714Y-81036666D01*
X110333333Y-81179523D01*
X110428571Y-81274761D01*
X110571428Y-81322380D01*
X110666666Y-81322380D01*
X109285714Y-81322380D02*
X109857142Y-81322380D01*
X109571428Y-81322380D02*
X109571428Y-80322380D01*
X109666666Y-80465238D01*
X109761904Y-80560476D01*
X109857142Y-80608095D01*
X108666666Y-80322380D02*
X108571428Y-80322380D01*
X108476190Y-80370000D01*
X108428571Y-80417619D01*
X108380952Y-80512857D01*
X108333333Y-80703333D01*
X108333333Y-80941428D01*
X108380952Y-81131904D01*
X108428571Y-81227142D01*
X108476190Y-81274761D01*
X108571428Y-81322380D01*
X108666666Y-81322380D01*
X108761904Y-81274761D01*
X108809523Y-81227142D01*
X108857142Y-81131904D01*
X108904761Y-80941428D01*
X108904761Y-80703333D01*
X108857142Y-80512857D01*
X108809523Y-80417619D01*
X108761904Y-80370000D01*
X108666666Y-80322380D01*
X107952380Y-80417619D02*
X107904761Y-80370000D01*
X107809523Y-80322380D01*
X107571428Y-80322380D01*
X107476190Y-80370000D01*
X107428571Y-80417619D01*
X107380952Y-80512857D01*
X107380952Y-80608095D01*
X107428571Y-80750952D01*
X108000000Y-81322380D01*
X107380952Y-81322380D01*
D11*
X106330000Y-84470000D02*
X103670000Y-84470000D01*
X106330000Y-84470000D02*
X106330000Y-92150000D01*
X106330000Y-81870000D02*
X105000000Y-81870000D01*
X106330000Y-92150000D02*
X103670000Y-92150000D01*
X103670000Y-84470000D02*
X103670000Y-92150000D01*
X106330000Y-83200000D02*
X106330000Y-81870000D01*
X110330000Y-83200000D02*
X110330000Y-81870000D01*
X110330000Y-81870000D02*
X109000000Y-81870000D01*
X110330000Y-84470000D02*
X110330000Y-92150000D01*
X110330000Y-92150000D02*
X107670000Y-92150000D01*
X107670000Y-84470000D02*
X107670000Y-92150000D01*
X110330000Y-84470000D02*
X107670000Y-84470000D01*
M02*
