M48
; DRILL file {KiCad 6.0.4+dfsg-1~bpo11+1} date Mon May 23 04:18:39 2022
; FORMAT={-:-/ absolute / inch / decimal}
; #@! TF.CreationDate,2022-05-23T04:18:39+00:00
; #@! TF.GenerationSoftware,Kicad,Pcbnew,6.0.4+dfsg-1~bpo11+1
; #@! TF.FileFunction,Plated,1,2,PTH
FMAT,2
INCH
; #@! TA.AperFunction,Plated,PTH,ViaDrill
T1C0.0157
; #@! TA.AperFunction,Plated,PTH,ComponentDrill
T2C0.0394
; #@! TA.AperFunction,Plated,PTH,ComponentDrill
T3C0.1260
%
G90
G05
T1
X3.2362Y-4.6575
X3.3465Y-3.2638
X3.5039Y-3.4567
X3.5394Y-3.2165
X3.5591Y-3.6142
X3.6207Y-3.5574
X3.748Y-3.878
X3.7677Y-3.9764
X3.7771Y-4.0261
X3.8268Y-4.1142
X3.8819Y-3.9961
X3.8819Y-4.0512
X4.3701Y-3.8189
X4.4331Y-4.5276
X4.622Y-3.3268
X4.689Y-3.815
T2
X4.1339Y-3.2756
X4.1339Y-3.3756
X4.1339Y-3.4756
X4.1339Y-3.5756
X4.2913Y-3.2756
X4.2913Y-3.3756
X4.2913Y-3.4756
X4.2913Y-3.5756
T3
X3.3465Y-3.937
X3.937Y-3.3465
X3.937Y-4.5276
X4.5276Y-3.937
T0
M30
