%TF.GenerationSoftware,KiCad,Pcbnew,6.0.4+dfsg-1~bpo11+1*%
%TF.CreationDate,2022-05-23T04:18:39+00:00*%
%TF.ProjectId,LEDcube,4c454463-7562-4652-9e6b-696361645f70,rev?*%
%TF.SameCoordinates,Original*%
%TF.FileFunction,Soldermask,Top*%
%TF.FilePolarity,Negative*%
%FSLAX46Y46*%
G04 Gerber Fmt 4.6, Leading zero omitted, Abs format (unit mm)*
G04 Created by KiCad (PCBNEW 6.0.4+dfsg-1~bpo11+1) date 2022-05-23 04:18:39*
%MOMM*%
%LPD*%
G01*
G04 APERTURE LIST*
G04 Aperture macros list*
%AMRoundRect*
0 Rectangle with rounded corners*
0 $1 Rounding radius*
0 $2 $3 $4 $5 $6 $7 $8 $9 X,Y pos of 4 corners*
0 Add a 4 corners polygon primitive as box body*
4,1,4,$2,$3,$4,$5,$6,$7,$8,$9,$2,$3,0*
0 Add four circle primitives for the rounded corners*
1,1,$1+$1,$2,$3*
1,1,$1+$1,$4,$5*
1,1,$1+$1,$6,$7*
1,1,$1+$1,$8,$9*
0 Add four rect primitives between the rounded corners*
20,1,$1+$1,$2,$3,$4,$5,0*
20,1,$1+$1,$4,$5,$6,$7,0*
20,1,$1+$1,$6,$7,$8,$9,0*
20,1,$1+$1,$8,$9,$2,$3,0*%
%AMFreePoly0*
4,1,22,0.500000,-0.750000,0.000000,-0.750000,0.000000,-0.745033,-0.079941,-0.743568,-0.215256,-0.701293,-0.333266,-0.622738,-0.424486,-0.514219,-0.481581,-0.384460,-0.499164,-0.250000,-0.500000,-0.250000,-0.500000,0.250000,-0.499164,0.250000,-0.499963,0.256109,-0.478152,0.396186,-0.417904,0.524511,-0.324060,0.630769,-0.204165,0.706417,-0.067858,0.745374,0.000000,0.744959,0.000000,0.750000,
0.500000,0.750000,0.500000,-0.750000,0.500000,-0.750000,$1*%
%AMFreePoly1*
4,1,20,0.000000,0.744959,0.073905,0.744508,0.209726,0.703889,0.328688,0.626782,0.421226,0.519385,0.479903,0.390333,0.500000,0.250000,0.500000,-0.250000,0.499851,-0.262216,0.476331,-0.402017,0.414519,-0.529596,0.319384,-0.634700,0.198574,-0.708877,0.061801,-0.746166,0.000000,-0.745033,0.000000,-0.750000,-0.500000,-0.750000,-0.500000,0.750000,0.000000,0.750000,0.000000,0.744959,
0.000000,0.744959,$1*%
G04 Aperture macros list end*
%ADD10RoundRect,0.140000X0.140000X0.170000X-0.140000X0.170000X-0.140000X-0.170000X0.140000X-0.170000X0*%
%ADD11R,1.500000X1.000000*%
%ADD12RoundRect,0.140000X0.170000X-0.140000X0.170000X0.140000X-0.170000X0.140000X-0.170000X-0.140000X0*%
%ADD13C,5.500000*%
%ADD14R,1.200000X1.400000*%
%ADD15RoundRect,0.140000X-0.140000X-0.170000X0.140000X-0.170000X0.140000X0.170000X-0.140000X0.170000X0*%
%ADD16RoundRect,0.100000X-0.637500X-0.100000X0.637500X-0.100000X0.637500X0.100000X-0.637500X0.100000X0*%
%ADD17R,0.600000X0.450000*%
%ADD18RoundRect,0.250000X0.425000X-0.450000X0.425000X0.450000X-0.425000X0.450000X-0.425000X-0.450000X0*%
%ADD19R,2.000000X1.500000*%
%ADD20R,2.000000X3.800000*%
%ADD21FreePoly0,270.000000*%
%ADD22FreePoly1,270.000000*%
%ADD23FreePoly0,180.000000*%
%ADD24FreePoly1,180.000000*%
%ADD25RoundRect,0.135000X0.185000X-0.135000X0.185000X0.135000X-0.185000X0.135000X-0.185000X-0.135000X0*%
%ADD26RoundRect,0.140000X-0.170000X0.140000X-0.170000X-0.140000X0.170000X-0.140000X0.170000X0.140000X0*%
%ADD27RoundRect,0.250000X-0.450000X-0.425000X0.450000X-0.425000X0.450000X0.425000X-0.450000X0.425000X0*%
%ADD28RoundRect,0.150000X-0.825000X-0.150000X0.825000X-0.150000X0.825000X0.150000X-0.825000X0.150000X0*%
%ADD29RoundRect,0.135000X0.135000X0.185000X-0.135000X0.185000X-0.135000X-0.185000X0.135000X-0.185000X0*%
%ADD30C,0.990600*%
%ADD31C,2.374900*%
%ADD32C,0.787400*%
%ADD33R,1.700000X1.700000*%
%ADD34O,1.700000X1.700000*%
G04 APERTURE END LIST*
D10*
%TO.C,C104*%
X100480000Y-109000000D03*
X99520000Y-109000000D03*
%TD*%
D11*
%TO.C,D105*%
X112550000Y-113400000D03*
X112550000Y-116600000D03*
X117450000Y-116600000D03*
X117450000Y-113400000D03*
%TD*%
D12*
%TO.C,C106*%
X91500000Y-102000000D03*
X91500000Y-101040000D03*
%TD*%
D13*
%TO.C,H103*%
X100000000Y-115000000D03*
%TD*%
D14*
%TO.C,Y101*%
X92150000Y-96900000D03*
X92150000Y-99100000D03*
X93850000Y-99100000D03*
X93850000Y-96900000D03*
%TD*%
D15*
%TO.C,C105*%
X92500000Y-95000000D03*
X93460000Y-95000000D03*
%TD*%
D16*
%TO.C,U102*%
X97137500Y-97075000D03*
X97137500Y-97725000D03*
X97137500Y-98375000D03*
X97137500Y-99025000D03*
X97137500Y-99675000D03*
X97137500Y-100325000D03*
X97137500Y-100975000D03*
X97137500Y-101625000D03*
X97137500Y-102275000D03*
X97137500Y-102925000D03*
X102862500Y-102925000D03*
X102862500Y-102275000D03*
X102862500Y-101625000D03*
X102862500Y-100975000D03*
X102862500Y-100325000D03*
X102862500Y-99675000D03*
X102862500Y-99025000D03*
X102862500Y-98375000D03*
X102862500Y-97725000D03*
X102862500Y-97075000D03*
%TD*%
D17*
%TO.C,D101*%
X91950000Y-83500000D03*
X94050000Y-83500000D03*
%TD*%
D18*
%TO.C,C101*%
X87000000Y-109350000D03*
X87000000Y-106650000D03*
%TD*%
D19*
%TO.C,U101*%
X89850000Y-105700000D03*
D20*
X96150000Y-108000000D03*
D19*
X89850000Y-108000000D03*
X89850000Y-110300000D03*
%TD*%
D11*
%TO.C,D104*%
X82550000Y-113400000D03*
X82550000Y-116600000D03*
X87450000Y-116600000D03*
X87450000Y-113400000D03*
%TD*%
%TO.C,D102*%
X112550000Y-83400000D03*
X112550000Y-86600000D03*
X117450000Y-86600000D03*
X117450000Y-83400000D03*
%TD*%
D21*
%TO.C,JP102*%
X97000000Y-93850000D03*
D22*
X97000000Y-95150000D03*
%TD*%
D23*
%TO.C,JP101*%
X94650000Y-102000000D03*
D24*
X93350000Y-102000000D03*
%TD*%
D25*
%TO.C,R102*%
X95000000Y-95010000D03*
X95000000Y-93990000D03*
%TD*%
D26*
%TO.C,C102*%
X85000000Y-107520000D03*
X85000000Y-108480000D03*
%TD*%
D13*
%TO.C,H104*%
X85000000Y-100000000D03*
%TD*%
%TO.C,H102*%
X115000000Y-100000000D03*
%TD*%
D27*
%TO.C,C103*%
X98650000Y-107000000D03*
X101350000Y-107000000D03*
%TD*%
D28*
%TO.C,U103*%
X90505000Y-87095000D03*
X90505000Y-88365000D03*
X90505000Y-89635000D03*
X90505000Y-90905000D03*
X95455000Y-90905000D03*
X95455000Y-89635000D03*
X95455000Y-88365000D03*
X95455000Y-87095000D03*
%TD*%
D13*
%TO.C,H101*%
X100000000Y-85000000D03*
%TD*%
D29*
%TO.C,R101*%
X99500000Y-104500000D03*
X98480000Y-104500000D03*
%TD*%
D11*
%TO.C,D103*%
X82550000Y-83400000D03*
X82550000Y-86600000D03*
X87450000Y-86600000D03*
X87450000Y-83400000D03*
%TD*%
D30*
%TO.C,J103*%
X114084000Y-89760000D03*
D31*
X112560000Y-94840000D03*
D30*
X116116000Y-89760000D03*
D31*
X117640000Y-94840000D03*
D30*
X115100000Y-94840000D03*
D31*
X112560000Y-91665000D03*
X117640000Y-91665000D03*
D32*
X115735000Y-93570000D03*
X114465000Y-93570000D03*
X115735000Y-92300000D03*
X114465000Y-92300000D03*
X115735000Y-91030000D03*
X114465000Y-91030000D03*
%TD*%
D33*
%TO.C,J101*%
X105000000Y-83200000D03*
D34*
X105000000Y-85740000D03*
X105000000Y-88280000D03*
X105000000Y-90820000D03*
%TD*%
D33*
%TO.C,J102*%
X109000000Y-83200000D03*
D34*
X109000000Y-85740000D03*
X109000000Y-88280000D03*
X109000000Y-90820000D03*
%TD*%
M02*
